<?xml version='1.0' encoding='utf-8'?>
<svg xmlns:xlink="http://www.w3.org/1999/xlink" class="pygal-chart" id="chart-34846c9f-cfb7-4fb0-840c-380c0ed9f40c" viewBox="0 0 800 600" xmlns="http://www.w3.org/2000/svg"><!--Generated with pygal 2.4.0 (etree) ©Kozea 2012-2016 on 2018-11-30--><!--http://pygal.org--><!--http://github.com/Kozea/pygal--><defs><style type="text/css">#chart-34846c9f-cfb7-4fb0-840c-380c0ed9f40c{-webkit-user-select:none;-webkit-font-smoothing:antialiased;font-family:Consolas,"Liberation Mono",Menlo,Courier,monospace}#chart-34846c9f-cfb7-4fb0-840c-380c0ed9f40c .title{font-family:Consolas,"Liberation Mono",Menlo,Courier,monospace;font-size:16px}#chart-34846c9f-cfb7-4fb0-840c-380c0ed9f40c .legends .legend text{font-family:Consolas,"Liberation Mono",Menlo,Courier,monospace;font-size:14px}#chart-34846c9f-cfb7-4fb0-840c-380c0ed9f40c .axis text{font-family:Consolas,"Liberation Mono",Menlo,Courier,monospace;font-size:10px}#chart-34846c9f-cfb7-4fb0-840c-380c0ed9f40c .axis text.major{font-family:Consolas,"Liberation Mono",Menlo,Courier,monospace;font-size:10px}#chart-34846c9f-cfb7-4fb0-840c-380c0ed9f40c .text-overlay text.value{font-family:Consolas,"Liberation Mono",Menlo,Courier,monospace;font-size:16px}#chart-34846c9f-cfb7-4fb0-840c-380c0ed9f40c .text-overlay text.label{font-family:Consolas,"Liberation Mono",Menlo,Courier,monospace;font-size:10px}#chart-34846c9f-cfb7-4fb0-840c-380c0ed9f40c .tooltip{font-family:Consolas,"Liberation Mono",Menlo,Courier,monospace;font-size:14px}#chart-34846c9f-cfb7-4fb0-840c-380c0ed9f40c text.no_data{font-family:Consolas,"Liberation Mono",Menlo,Courier,monospace;font-size:64px}
#chart-34846c9f-cfb7-4fb0-840c-380c0ed9f40c{background-color:#fdf6e3}#chart-34846c9f-cfb7-4fb0-840c-380c0ed9f40c path,#chart-34846c9f-cfb7-4fb0-840c-380c0ed9f40c line,#chart-34846c9f-cfb7-4fb0-840c-380c0ed9f40c rect,#chart-34846c9f-cfb7-4fb0-840c-380c0ed9f40c circle{-webkit-transition:500ms ease-in;-moz-transition:500ms ease-in;transition:500ms ease-in}#chart-34846c9f-cfb7-4fb0-840c-380c0ed9f40c .graph &gt; .background{fill:#fdf6e3}#chart-34846c9f-cfb7-4fb0-840c-380c0ed9f40c .plot &gt; .background{fill:#eee8d5}#chart-34846c9f-cfb7-4fb0-840c-380c0ed9f40c .graph{fill:#657b83}#chart-34846c9f-cfb7-4fb0-840c-380c0ed9f40c text.no_data{fill:#073642}#chart-34846c9f-cfb7-4fb0-840c-380c0ed9f40c .title{fill:#073642}#chart-34846c9f-cfb7-4fb0-840c-380c0ed9f40c .legends .legend text{fill:#657b83}#chart-34846c9f-cfb7-4fb0-840c-380c0ed9f40c .legends .legend:hover text{fill:#073642}#chart-34846c9f-cfb7-4fb0-840c-380c0ed9f40c .axis .line{stroke:#073642}#chart-34846c9f-cfb7-4fb0-840c-380c0ed9f40c .axis .guide.line{stroke:#073642}#chart-34846c9f-cfb7-4fb0-840c-380c0ed9f40c .axis .major.line{stroke:#657b83}#chart-34846c9f-cfb7-4fb0-840c-380c0ed9f40c .axis text.major{fill:#073642}#chart-34846c9f-cfb7-4fb0-840c-380c0ed9f40c .axis.y .guides:hover .guide.line,#chart-34846c9f-cfb7-4fb0-840c-380c0ed9f40c .line-graph .axis.x .guides:hover .guide.line,#chart-34846c9f-cfb7-4fb0-840c-380c0ed9f40c .stackedline-graph .axis.x .guides:hover .guide.line,#chart-34846c9f-cfb7-4fb0-840c-380c0ed9f40c .xy-graph .axis.x .guides:hover .guide.line{stroke:#073642}#chart-34846c9f-cfb7-4fb0-840c-380c0ed9f40c .axis .guides:hover text{fill:#073642}#chart-34846c9f-cfb7-4fb0-840c-380c0ed9f40c .reactive{fill-opacity:.66;stroke-opacity:.8}#chart-34846c9f-cfb7-4fb0-840c-380c0ed9f40c .ci{stroke:#657b83}#chart-34846c9f-cfb7-4fb0-840c-380c0ed9f40c .reactive.active,#chart-34846c9f-cfb7-4fb0-840c-380c0ed9f40c .active .reactive{fill-opacity:.9;stroke-opacity:.9;stroke-width:4}#chart-34846c9f-cfb7-4fb0-840c-380c0ed9f40c .ci .reactive.active{stroke-width:1.5}#chart-34846c9f-cfb7-4fb0-840c-380c0ed9f40c .series text{fill:#073642}#chart-34846c9f-cfb7-4fb0-840c-380c0ed9f40c .tooltip rect{fill:#eee8d5;stroke:#073642;-webkit-transition:opacity 500ms ease-in;-moz-transition:opacity 500ms ease-in;transition:opacity 500ms ease-in}#chart-34846c9f-cfb7-4fb0-840c-380c0ed9f40c .tooltip .label{fill:#657b83}#chart-34846c9f-cfb7-4fb0-840c-380c0ed9f40c .tooltip .label{fill:#657b83}#chart-34846c9f-cfb7-4fb0-840c-380c0ed9f40c .tooltip .legend{font-size:.8em;fill:#073642}#chart-34846c9f-cfb7-4fb0-840c-380c0ed9f40c .tooltip .x_label{font-size:.6em;fill:#073642}#chart-34846c9f-cfb7-4fb0-840c-380c0ed9f40c .tooltip .xlink{font-size:.5em;text-decoration:underline}#chart-34846c9f-cfb7-4fb0-840c-380c0ed9f40c .tooltip .value{font-size:1.5em}#chart-34846c9f-cfb7-4fb0-840c-380c0ed9f40c .bound{font-size:.5em}#chart-34846c9f-cfb7-4fb0-840c-380c0ed9f40c .max-value{font-size:.75em;fill:#073642}#chart-34846c9f-cfb7-4fb0-840c-380c0ed9f40c .map-element{fill:#eee8d5;stroke:#073642 !important}#chart-34846c9f-cfb7-4fb0-840c-380c0ed9f40c .map-element .reactive{fill-opacity:inherit;stroke-opacity:inherit}#chart-34846c9f-cfb7-4fb0-840c-380c0ed9f40c .color-0,#chart-34846c9f-cfb7-4fb0-840c-380c0ed9f40c .color-0 a:visited{stroke:#b58900;fill:#b58900}#chart-34846c9f-cfb7-4fb0-840c-380c0ed9f40c .text-overlay .color-0 text{fill:black}
#chart-34846c9f-cfb7-4fb0-840c-380c0ed9f40c text.no_data{text-anchor:middle}#chart-34846c9f-cfb7-4fb0-840c-380c0ed9f40c .guide.line{fill:none}#chart-34846c9f-cfb7-4fb0-840c-380c0ed9f40c .centered{text-anchor:middle}#chart-34846c9f-cfb7-4fb0-840c-380c0ed9f40c .title{text-anchor:middle}#chart-34846c9f-cfb7-4fb0-840c-380c0ed9f40c .legends .legend text{fill-opacity:1}#chart-34846c9f-cfb7-4fb0-840c-380c0ed9f40c .axis.x text{text-anchor:middle}#chart-34846c9f-cfb7-4fb0-840c-380c0ed9f40c .axis.x:not(.web) text[transform]{text-anchor:start}#chart-34846c9f-cfb7-4fb0-840c-380c0ed9f40c .axis.x:not(.web) text[transform].backwards{text-anchor:end}#chart-34846c9f-cfb7-4fb0-840c-380c0ed9f40c .axis.y text{text-anchor:end}#chart-34846c9f-cfb7-4fb0-840c-380c0ed9f40c .axis.y text[transform].backwards{text-anchor:start}#chart-34846c9f-cfb7-4fb0-840c-380c0ed9f40c .axis.y2 text{text-anchor:start}#chart-34846c9f-cfb7-4fb0-840c-380c0ed9f40c .axis.y2 text[transform].backwards{text-anchor:end}#chart-34846c9f-cfb7-4fb0-840c-380c0ed9f40c .axis .guide.line{stroke-dasharray:4,4}#chart-34846c9f-cfb7-4fb0-840c-380c0ed9f40c .axis .major.guide.line{stroke-dasharray:6,6}#chart-34846c9f-cfb7-4fb0-840c-380c0ed9f40c .horizontal .axis.y .guide.line,#chart-34846c9f-cfb7-4fb0-840c-380c0ed9f40c .horizontal .axis.y2 .guide.line,#chart-34846c9f-cfb7-4fb0-840c-380c0ed9f40c .vertical .axis.x .guide.line{opacity:0}#chart-34846c9f-cfb7-4fb0-840c-380c0ed9f40c .horizontal .axis.always_show .guide.line,#chart-34846c9f-cfb7-4fb0-840c-380c0ed9f40c .vertical .axis.always_show .guide.line{opacity:1 !important}#chart-34846c9f-cfb7-4fb0-840c-380c0ed9f40c .axis.y .guides:hover .guide.line,#chart-34846c9f-cfb7-4fb0-840c-380c0ed9f40c .axis.y2 .guides:hover .guide.line,#chart-34846c9f-cfb7-4fb0-840c-380c0ed9f40c .axis.x .guides:hover .guide.line{opacity:1}#chart-34846c9f-cfb7-4fb0-840c-380c0ed9f40c .axis .guides:hover text{opacity:1}#chart-34846c9f-cfb7-4fb0-840c-380c0ed9f40c .nofill{fill:none}#chart-34846c9f-cfb7-4fb0-840c-380c0ed9f40c .subtle-fill{fill-opacity:.2}#chart-34846c9f-cfb7-4fb0-840c-380c0ed9f40c .dot{stroke-width:1px;fill-opacity:1}#chart-34846c9f-cfb7-4fb0-840c-380c0ed9f40c .dot.active{stroke-width:5px}#chart-34846c9f-cfb7-4fb0-840c-380c0ed9f40c .dot.negative{fill:transparent}#chart-34846c9f-cfb7-4fb0-840c-380c0ed9f40c text,#chart-34846c9f-cfb7-4fb0-840c-380c0ed9f40c tspan{stroke:none !important}#chart-34846c9f-cfb7-4fb0-840c-380c0ed9f40c .series text.active{opacity:1}#chart-34846c9f-cfb7-4fb0-840c-380c0ed9f40c .tooltip rect{fill-opacity:.95;stroke-width:.5}#chart-34846c9f-cfb7-4fb0-840c-380c0ed9f40c .tooltip text{fill-opacity:1}#chart-34846c9f-cfb7-4fb0-840c-380c0ed9f40c .showable{visibility:hidden}#chart-34846c9f-cfb7-4fb0-840c-380c0ed9f40c .showable.shown{visibility:visible}#chart-34846c9f-cfb7-4fb0-840c-380c0ed9f40c .gauge-background{fill:rgba(229,229,229,1);stroke:none}#chart-34846c9f-cfb7-4fb0-840c-380c0ed9f40c .bg-lines{stroke:#fdf6e3;stroke-width:2px}</style><script type="text/javascript">window.pygal = window.pygal || {};window.pygal.config = window.pygal.config || {};window.pygal.config['34846c9f-cfb7-4fb0-840c-380c0ed9f40c'] = {"allow_interruptions": false, "box_mode": "extremes", "classes": ["pygal-chart"], "css": ["file://style.css", "file://graph.css"], "defs": [], "disable_xml_declaration": false, "dots_size": 2.5, "dynamic_print_values": false, "explicit_size": false, "fill": true, "force_uri_protocol": "https", "formatter": null, "half_pie": false, "height": 600, "include_x_axis": false, "inner_radius": 0, "interpolate": "cubic", "interpolation_parameters": {}, "interpolation_precision": 250, "inverse_y_axis": false, "js": ["//kozea.github.io/pygal.js/2.0.x/pygal-tooltips.min.js"], "legend_at_bottom": false, "legend_at_bottom_columns": null, "legend_box_size": 12, "logarithmic": false, "margin": 20, "margin_bottom": null, "margin_left": null, "margin_right": null, "margin_top": null, "max_scale": 16, "min_scale": 4, "missing_value_fill_truncation": "x", "no_data_text": "No data", "no_prefix": false, "order_min": null, "pretty_print": false, "print_labels": false, "print_values": false, "print_values_position": "center", "print_zeroes": true, "range": null, "rounded_bars": null, "secondary_range": null, "show_dots": true, "show_legend": true, "show_minor_x_labels": true, "show_minor_y_labels": true, "show_only_major_dots": false, "show_x_guides": false, "show_x_labels": true, "show_y_guides": true, "show_y_labels": true, "spacing": 10, "stack_from_top": false, "strict": false, "stroke": true, "stroke_style": null, "style": {"background": "#fdf6e3", "ci_colors": [], "colors": ["#b58900", "#cb4b16", "#dc322f", "#d33682", "#6c71c4", "#268bd2", "#2aa198", "#859900"], "font_family": "Consolas, \"Liberation Mono\", Menlo, Courier, monospace", "foreground": "#657b83", "foreground_strong": "#073642", "foreground_subtle": "#073642", "guide_stroke_dasharray": "4,4", "label_font_family": "Consolas, \"Liberation Mono\", Menlo, Courier, monospace", "label_font_size": 10, "legend_font_family": "Consolas, \"Liberation Mono\", Menlo, Courier, monospace", "legend_font_size": 14, "major_guide_stroke_dasharray": "6,6", "major_label_font_family": "Consolas, \"Liberation Mono\", Menlo, Courier, monospace", "major_label_font_size": 10, "no_data_font_family": "Consolas, \"Liberation Mono\", Menlo, Courier, monospace", "no_data_font_size": 64, "opacity": ".66", "opacity_hover": ".9", "plot_background": "#eee8d5", "stroke_opacity": ".8", "stroke_opacity_hover": ".9", "title_font_family": "Consolas, \"Liberation Mono\", Menlo, Courier, monospace", "title_font_size": 16, "tooltip_font_family": "Consolas, \"Liberation Mono\", Menlo, Courier, monospace", "tooltip_font_size": 14, "transition": "500ms ease-in", "value_background": "rgba(229, 229, 229, 1)", "value_colors": [], "value_font_family": "Consolas, \"Liberation Mono\", Menlo, Courier, monospace", "value_font_size": 16, "value_label_font_family": "Consolas, \"Liberation Mono\", Menlo, Courier, monospace", "value_label_font_size": 10}, "title": "Share update", "tooltip_border_radius": 0, "tooltip_fancy_mode": true, "truncate_label": null, "truncate_legend": null, "width": 800, "x_label_rotation": 0, "x_labels": ["25-Oct", "3-Nov", "6-Nov", "9-Nov", "16-Nov", "21-Nov", "22-Nov", "24-Nov", "25-Nov"], "x_labels_major": null, "x_labels_major_count": null, "x_labels_major_every": null, "x_title": null, "xrange": null, "y_label_rotation": 0, "y_labels": [0, 500, 1000, 1500, 2000, 2500, 3000, 3500], "y_labels_major": null, "y_labels_major_count": null, "y_labels_major_every": null, "y_title": null, "zero": 0, "legends": ["SHARE"]}</script><script type="text/javascript" xlink:href="https://kozea.github.io/pygal.js/2.0.x/pygal-tooltips.min.js" /></defs><title>Share update</title><g class="graph stackedline-graph vertical"><rect class="background" height="600" width="800" x="0" y="0" /><g class="plot" transform="translate(118, 46)"><rect class="background" height="514" width="662.0" x="0" y="0" /><g class="axis y always_show"><g class="guides"><path class="axis major line" d="M0.000000 504.115385 h662.000000" /><text class="major" x="-5" y="507.61538461538464">0</text><title>0</title></g><g class="guides"><path class="guide line" d="M0.000000 433.510989 h662.000000" /><text class="" x="-5" y="437.010989010989">500</text><title>500</title></g><g class="guides"><path class="major guide line" d="M0.000000 362.906593 h662.000000" /><text class="major" x="-5" y="366.4065934065934">1000</text><title>1000</title></g><g class="guides"><path class="guide line" d="M0.000000 292.302198 h662.000000" /><text class="" x="-5" y="295.80219780219784">1500</text><title>1500</title></g><g class="guides"><path class="major guide line" d="M0.000000 221.697802 h662.000000" /><text class="major" x="-5" y="225.19780219780222">2000</text><title>2000</title></g><g class="guides"><path class="guide line" d="M0.000000 151.093407 h662.000000" /><text class="" x="-5" y="154.5934065934066">2500</text><title>2500</title></g><g class="guides"><path class="major guide line" d="M0.000000 80.489011 h662.000000" /><text class="major" x="-5" y="83.98901098901098">3000</text><title>3000</title></g><g class="guides"><path class="guide line" d="M0.000000 9.884615 h662.000000" /><text class="" x="-5" y="13.384615384615358">3500</text><title>3500</title></g></g><g class="axis x"><g class="guides"><path class="line" d="M12.730769 0.000000 v514.000000" /><text class="" x="12.73076923076923" y="529.0">25-Oct</text></g><g class="guides"><path class="guide line" d="M92.298077 0.000000 v514.000000" /><text class="" x="92.29807692307692" y="529.0">3-Nov</text></g><g class="guides"><path class="guide line" d="M171.865385 0.000000 v514.000000" /><text class="" x="171.8653846153846" y="529.0">6-Nov</text></g><g class="guides"><path class="guide line" d="M251.432692 0.000000 v514.000000" /><text class="" x="251.43269230769232" y="529.0">9-Nov</text></g><g class="guides"><path class="guide line" d="M331.000000 0.000000 v514.000000" /><text class="" x="331.0" y="529.0">16-Nov</text></g><g class="guides"><path class="guide line" d="M410.567308 0.000000 v514.000000" /><text class="" x="410.5673076923077" y="529.0">21-Nov</text></g><g class="guides"><path class="guide line" d="M490.134615 0.000000 v514.000000" /><text class="" x="490.13461538461536" y="529.0">22-Nov</text></g><g class="guides"><path class="guide line" d="M569.701923 0.000000 v514.000000" /><text class="" x="569.7019230769231" y="529.0">24-Nov</text></g><g class="guides"><path class="guide line" d="M649.269231 0.000000 v514.000000" /><text class="" x="649.2692307692307" y="529.0">25-Nov</text></g></g><g class="series serie-0 color-0"><path class="line reactive" d="M12.730769 504.115385 L12.730769 276.628022 13.049038 275.267280 13.367308 273.906574 13.685577 272.545940 14.003846 271.185412 14.322115 269.825028 14.640385 268.464822 14.958654 267.104831 15.276923 265.745090 15.595192 264.385635 15.913462 263.026501 16.231731 261.667725 16.550000 260.309342 16.868269 258.951388 17.186538 257.593898 17.504808 256.236909 17.823077 254.880456 18.141346 253.524575 18.459615 252.169301 18.777885 250.814671 19.096154 249.460720 19.414423 248.107483 19.732692 246.754997 20.050962 245.403297 20.369231 244.052420 20.687500 242.702400 21.005769 241.353273 21.324038 240.005076 21.642308 238.657844 21.960577 237.311612 22.278846 235.966417 22.597115 234.622294 22.915385 233.279279 23.233654 231.937408 23.551923 230.596716 23.870192 229.257239 24.188462 227.919013 24.506731 226.582074 24.825000 225.246457 25.143269 223.912198 25.461538 222.579333 25.779808 221.247897 26.098077 219.917927 26.416346 218.589458 26.734615 217.262526 27.052885 215.937166 27.371154 214.613415 27.689423 213.291307 28.007692 211.970880 28.325962 210.652168 28.644231 209.335207 28.962500 208.020033 29.280769 206.706681 29.599038 205.395189 29.917308 204.085590 30.235577 202.777921 30.553846 201.472218 30.872115 200.168517 31.190385 198.866852 31.508654 197.567261 31.826923 196.269778 32.145192 194.974439 32.463462 193.681281 32.781731 192.390338 33.100000 191.101647 33.418269 189.815244 33.736538 188.531163 34.054808 187.249441 34.373077 185.970114 34.691346 184.693217 35.009615 183.418786 35.327885 182.146857 35.646154 180.877465 35.964423 179.610647 36.282692 178.346437 36.600962 177.084872 36.919231 175.825988 37.237500 174.569820 37.555769 173.316404 37.874038 172.065775 38.192308 170.817970 38.510577 169.573024 38.828846 168.330973 39.147115 167.091853 39.465385 165.855699 39.783654 164.622547 40.101923 163.392433 40.420192 162.165393 40.738462 160.941462 41.056731 159.720676 41.375000 158.503071 41.693269 157.288682 42.011538 156.077546 42.329808 154.869697 42.648077 153.665173 42.966346 152.464008 43.284615 151.266238 43.602885 150.071899 43.921154 148.881027 44.239423 147.693657 44.557692 146.509826 44.875962 145.329569 45.194231 144.152921 45.512500 142.979918 45.830769 141.810597 46.149038 140.644993 46.467308 139.483141 46.785577 138.325078 47.103846 137.170839 47.422115 136.020460 47.740385 134.873976 48.058654 133.731424 48.376923 132.592839 48.695192 131.458256 49.013462 130.327713 49.331731 129.201243 49.650000 128.078884 49.968269 126.960670 50.286538 125.846638 50.604808 124.736823 50.923077 123.631261 51.241346 122.529988 51.559615 121.433039 51.877885 120.340450 52.196154 119.252258 52.514423 118.168497 52.832692 117.089204 53.150962 116.014413 53.469231 114.944162 53.787500 113.878485 54.105769 112.817419 54.424038 111.760999 54.742308 110.709261 55.060577 109.662240 55.378846 108.619973 55.697115 107.582494 56.015385 106.549841 56.333654 105.522048 56.651923 104.499152 56.970192 103.481187 57.288462 102.468190 57.606731 101.460197 57.925000 100.457243 58.243269 99.459364 58.561538 98.466596 58.879808 97.478975 59.198077 96.496535 59.516346 95.519314 59.834615 94.547346 60.152885 93.580668 60.471154 92.619314 60.789423 91.663322 61.107692 90.712727 61.425962 89.767564 61.744231 88.827869 62.062500 87.893677 62.380769 86.965026 62.699038 86.041950 63.017308 85.124485 63.335577 84.212666 63.653846 83.306531 63.972115 82.406113 64.290385 81.511450 64.608654 80.622577 64.926923 79.739529 65.245192 78.862342 65.563462 77.991052 65.881731 77.125695 66.200000 76.266307 66.518269 75.412923 66.836538 74.565579 67.154808 73.724310 67.473077 72.889153 67.791346 72.060143 68.109615 71.237316 68.427885 70.420708 68.746154 69.610354 69.064423 68.806290 69.382692 68.008553 69.700962 67.217176 70.019231 66.432198 70.337500 65.653652 70.655769 64.881575 70.974038 64.116003 71.292308 63.356971 71.610577 62.604515 71.928846 61.858671 72.247115 61.119474 72.565385 60.386961 72.883654 59.661167 73.201923 58.942127 73.520192 58.229878 73.838462 57.524455 74.156731 56.825895 74.475000 56.134232 74.793269 55.449502 75.111538 54.771742 75.429808 54.100986 75.748077 53.437271 76.066346 52.780633 76.384615 52.131107 76.702885 51.488728 77.021154 50.853534 77.339423 50.225558 77.657692 49.604838 77.975962 48.991409 78.294231 48.385306 78.612500 47.786566 78.930769 47.195223 79.249038 46.611315 79.567308 46.034876 79.885577 45.465942 80.203846 44.904550 80.522115 44.350734 80.840385 43.804530 81.158654 43.265975 81.476923 42.735104 81.795192 42.211953 82.113462 41.696557 82.431731 41.188952 82.750000 40.689174 83.068269 40.197259 83.386538 39.713242 83.704808 39.237160 84.023077 38.769047 84.341346 38.308940 84.659615 37.856874 84.977885 37.412886 85.296154 36.977010 85.614423 36.549283 85.932692 36.129741 86.250962 35.718418 86.569231 35.315351 86.887500 34.920576 87.205769 34.534128 87.524038 34.156043 87.842308 33.786357 88.160577 33.425106 88.478846 33.072324 88.797115 32.728049 89.115385 32.392315 89.433654 32.065159 89.751923 31.746616 90.070192 31.436722 90.388462 31.135513 90.706731 30.843024 91.025000 30.559292 91.343269 30.284351 91.661538 30.018238 91.979808 29.760988 92.298077 29.512637 92.616346 29.273206 92.934615 29.042649 93.252885 28.820908 93.571154 28.607923 93.889423 28.403634 94.207692 28.207982 94.525962 28.020906 94.844231 27.842348 95.162500 27.672247 95.480769 27.510544 95.799038 27.357179 96.117308 27.212092 96.435577 27.075224 96.753846 26.946516 97.072115 26.825906 97.390385 26.713337 97.708654 26.608747 98.026923 26.512078 98.345192 26.423269 98.663462 26.342262 98.981731 26.268996 99.300000 26.203412 99.618269 26.145449 99.936538 26.095049 100.254808 26.052152 100.573077 26.016697 100.891346 25.988626 101.209615 25.967879 101.527885 25.954396 101.846154 25.948116 102.164423 25.948982 102.482692 25.956932 102.800962 25.971908 103.119231 25.993849 103.437500 26.022696 103.755769 26.058389 104.074038 26.100869 104.392308 26.150076 104.710577 26.205950 105.028846 26.268432 105.347115 26.337461 105.665385 26.412979 105.983654 26.494925 106.301923 26.583240 106.620192 26.677864 106.938462 26.778737 107.256731 26.885801 107.575000 26.998994 107.893269 27.118258 108.211538 27.243533 108.529808 27.374759 108.848077 27.511876 109.166346 27.654825 109.484615 27.803546 109.802885 27.957979 110.121154 28.118065 110.439423 28.283745 110.757692 28.454957 111.075962 28.631644 111.394231 28.813744 111.712500 29.001199 112.030769 29.193948 112.349038 29.391932 112.667308 29.595092 112.985577 29.803368 113.303846 30.016699 113.622115 30.235026 113.940385 30.458291 114.258654 30.686432 114.576923 30.919390 114.895192 31.157106 115.213462 31.399520 115.531731 31.646573 115.850000 31.898203 116.168269 32.154353 116.486538 32.414962 116.804808 32.679971 117.123077 32.949319 117.441346 33.222947 117.759615 33.500796 118.077885 33.782806 118.396154 34.068917 118.714423 34.359070 119.032692 34.653204 119.350962 34.951261 119.669231 35.253180 119.987500 35.558902 120.305769 35.868366 120.624038 36.181515 120.942308 36.498287 121.260577 36.818623 121.578846 37.142464 121.897115 37.469749 122.215385 37.800419 122.533654 38.134415 122.851923 38.471677 123.170192 38.812144 123.488462 39.155758 123.806731 39.502459 124.125000 39.852186 124.443269 40.204881 124.761538 40.560484 125.079808 40.918934 125.398077 41.280173 125.716346 41.644141 126.034615 42.010777 126.352885 42.380023 126.671154 42.751819 126.989423 43.126104 127.307692 43.502820 127.625962 43.881906 127.944231 44.263303 128.262500 44.646951 128.580769 45.032791 128.899038 45.420763 129.217308 45.810807 129.535577 46.202863 129.853846 46.596873 130.172115 46.992775 130.490385 47.390511 130.808654 47.790021 131.126923 48.191245 131.445192 48.594124 131.763462 48.998597 132.081731 49.404605 132.400000 49.812089 132.718269 50.220989 133.036538 50.631245 133.354808 51.042797 133.673077 51.455586 133.991346 51.869552 134.309615 52.284635 134.627885 52.700777 134.946154 53.117916 135.264423 53.535993 135.582692 53.954950 135.900962 54.374725 136.219231 54.795260 136.537500 55.216494 136.855769 55.638368 137.174038 56.060823 137.492308 56.483798 137.810577 56.907235 138.128846 57.331072 138.447115 57.755252 138.765385 58.179713 139.083654 58.604396 139.401923 59.029242 139.720192 59.454191 140.038462 59.879183 140.356731 60.304159 140.675000 60.729059 140.993269 61.153823 141.311538 61.578391 141.629808 62.002705 141.948077 62.426703 142.266346 62.850327 142.584615 63.273517 142.902885 63.696213 143.221154 64.118356 143.539423 64.539885 143.857692 64.960741 144.175962 65.380865 144.494231 65.800197 144.812500 66.218677 145.130769 66.636245 145.449038 67.052842 145.767308 67.468409 146.085577 67.882884 146.403846 68.296210 146.722115 68.708325 147.040385 69.119171 147.358654 69.528687 147.676923 69.936815 147.995192 70.343494 148.313462 70.748664 148.631731 71.152267 148.950000 71.554242 149.268269 71.954529 149.586538 72.353070 149.904808 72.749804 150.223077 73.144672 150.541346 73.537613 150.859615 73.928569 151.177885 74.317479 151.496154 74.704285 151.814423 75.088925 152.132692 75.471341 152.450962 75.851473 152.769231 76.229262 153.087500 76.604647 153.405769 76.977568 153.724038 77.347967 154.042308 77.715784 154.360577 78.080958 154.678846 78.443431 154.997115 78.803142 155.315385 79.160032 155.633654 79.514041 155.951923 79.865109 156.270192 80.213178 156.588462 80.558186 156.906731 80.900075 157.225000 81.238785 157.543269 81.574256 157.861538 81.906428 158.179808 82.235242 158.498077 82.560638 158.816346 82.882556 159.134615 83.200938 159.452885 83.515722 159.771154 83.826849 160.089423 84.134261 160.407692 84.437896 160.725962 84.737696 161.044231 85.033600 161.362500 85.325550 161.680769 85.613484 161.999038 85.897345 162.317308 86.177071 162.635577 86.452604 162.953846 86.723883 163.272115 86.990849 163.590385 87.253442 163.908654 87.511604 164.226923 87.765273 164.545192 88.014390 164.863462 88.258896 165.181731 88.498730 165.500000 88.733834 165.818269 88.964148 166.136538 89.189611 166.454808 89.410165 166.773077 89.625749 167.091346 89.836304 167.409615 90.041770 167.727885 90.242087 168.046154 90.437197 168.364423 90.627038 168.682692 90.811552 169.000962 90.990679 169.319231 91.164359 169.637500 91.332532 169.955769 91.495139 170.274038 91.652121 170.592308 91.803416 170.910577 91.948967 171.228846 92.088712 171.547115 92.222593 171.865385 92.350549 172.183654 92.472541 172.501923 92.588600 172.820192 92.698780 173.138462 92.803132 173.456731 92.901708 173.775000 92.994561 174.093269 93.081743 174.411538 93.163306 174.729808 93.239301 175.048077 93.309782 175.366346 93.374799 175.684615 93.434406 176.002885 93.488654 176.321154 93.537596 176.639423 93.581284 176.957692 93.619769 177.275962 93.653103 177.594231 93.681340 177.912500 93.704531 178.230769 93.722728 178.549038 93.735983 178.867308 93.744348 179.185577 93.747876 179.503846 93.746619 179.822115 93.740628 180.140385 93.729956 180.458654 93.714655 180.776923 93.694777 181.095192 93.670374 181.413462 93.641498 181.731731 93.608202 182.050000 93.570537 182.368269 93.528556 182.686538 93.482310 183.004808 93.431852 183.323077 93.377234 183.641346 93.318508 183.959615 93.255726 184.277885 93.188941 184.596154 93.118203 184.914423 93.043566 185.232692 92.965082 185.550962 92.882802 185.869231 92.796779 186.187500 92.707065 186.505769 92.613712 186.824038 92.516773 187.142308 92.416298 187.460577 92.312340 187.778846 92.204953 188.097115 92.094186 188.415385 91.980093 188.733654 91.862727 189.051923 91.742137 189.370192 91.618378 189.688462 91.491501 190.006731 91.361559 190.325000 91.228602 190.643269 91.092684 190.961538 90.953857 191.279808 90.812172 191.598077 90.667682 191.916346 90.520438 192.234615 90.370494 192.552885 90.217901 192.871154 90.062711 193.189423 89.904976 193.507692 89.744749 193.825962 89.582082 194.144231 89.417025 194.462500 89.249633 194.780769 89.079957 195.099038 88.908048 195.417308 88.733960 195.735577 88.557744 196.053846 88.379452 196.372115 88.199136 196.690385 88.016849 197.008654 87.832643 197.326923 87.646569 197.645192 87.458681 197.963462 87.269029 198.281731 87.077666 198.600000 86.884644 198.918269 86.690016 199.236538 86.493833 199.554808 86.296148 199.873077 86.097012 200.191346 85.896478 200.509615 85.694598 200.827885 85.491424 201.146154 85.287008 201.464423 85.081402 201.782692 84.874658 202.100962 84.666829 202.419231 84.457966 202.737500 84.248122 203.055769 84.037349 203.374038 83.825698 203.692308 83.613222 204.010577 83.399974 204.328846 83.186004 204.647115 82.971366 204.965385 82.756111 205.283654 82.540292 205.601923 82.323960 205.920192 82.107168 206.238462 81.889968 206.556731 81.672412 206.875000 81.454552 207.193269 81.236440 207.511538 81.018128 207.829808 80.799668 208.148077 80.581114 208.466346 80.362515 208.784615 80.143926 209.102885 79.925397 209.421154 79.706981 209.739423 79.488730 210.057692 79.270697 210.375962 79.052932 210.694231 78.835489 211.012500 78.618419 211.330769 78.401775 211.649038 78.185609 211.967308 77.969973 212.285577 77.754918 212.603846 77.540498 212.922115 77.326763 213.240385 77.113767 213.558654 76.901561 213.876923 76.690198 214.195192 76.479729 214.513462 76.270207 214.831731 76.061684 215.150000 75.854211 215.468269 75.647842 215.786538 75.442628 216.104808 75.238621 216.423077 75.035873 216.741346 74.834437 217.059615 74.634365 217.377885 74.435708 217.696154 74.238518 218.014423 74.042849 218.332692 73.848752 218.650962 73.656279 218.969231 73.465482 219.287500 73.276414 219.605769 73.089125 219.924038 72.903670 220.242308 72.720099 220.560577 72.538465 220.878846 72.358820 221.197115 72.181216 221.515385 72.005705 221.833654 71.832339 222.151923 71.661170 222.470192 71.492251 222.788462 71.325634 223.106731 71.161370 223.425000 70.999512 223.743269 70.840111 224.061538 70.683221 224.379808 70.528893 224.698077 70.377179 225.016346 70.228132 225.334615 70.081803 225.652885 69.938244 225.971154 69.797508 226.289423 69.659647 226.607692 69.524712 226.925962 69.392757 227.244231 69.263833 227.562500 69.137992 227.880769 69.015286 228.199038 68.895768 228.517308 68.779489 228.835577 68.666502 229.153846 68.556859 229.472115 68.450611 229.790385 68.347812 230.108654 68.248512 230.426923 68.152765 230.745192 68.060622 231.063462 67.972135 231.381731 67.887357 231.700000 67.806340 232.018269 67.729135 232.336538 67.655796 232.654808 67.586373 232.973077 67.520919 233.291346 67.459487 233.609615 67.402127 233.927885 67.348894 234.246154 67.299837 234.564423 67.255011 234.882692 67.214466 235.200962 67.178255 235.519231 67.146429 235.837500 67.119042 236.155769 67.096145 236.474038 67.077791 236.792308 67.064031 237.110577 67.054917 237.428846 67.050502 237.747115 67.050837 238.065385 67.055976 238.383654 67.065969 238.701923 67.080870 239.020192 67.100729 239.338462 67.125600 239.656731 67.155535 239.975000 67.190584 240.293269 67.230802 240.611538 67.276239 240.929808 67.326948 241.248077 67.382981 241.566346 67.444390 241.884615 67.511227 242.202885 67.583544 242.521154 67.661394 242.839423 67.744828 243.157692 67.833899 243.475962 67.928659 243.794231 68.029159 244.112500 68.135453 244.430769 68.247591 244.749038 68.365626 245.067308 68.489611 245.385577 68.619597 245.703846 68.755637 246.022115 68.897782 246.340385 69.046085 246.658654 69.200598 246.976923 69.361372 247.295192 69.528461 247.613462 69.701916 247.931731 69.881789 248.250000 70.068133 248.568269 70.260998 248.886538 70.460439 249.204808 70.666506 249.523077 70.879252 249.841346 71.098729 250.159615 71.324989 250.477885 71.558084 250.796154 71.798066 251.114423 72.044988 251.432692 72.298901 251.750962 72.559842 252.069231 72.827782 252.387500 73.102677 252.705769 73.384482 253.024038 73.673155 253.342308 73.968649 253.660577 74.270921 253.978846 74.579927 254.297115 74.895622 254.615385 75.217963 254.933654 75.546904 255.251923 75.882402 255.570192 76.224412 255.888462 76.572890 256.206731 76.927792 256.525000 77.289073 256.843269 77.656689 257.161538 78.030597 257.479808 78.410751 257.798077 78.797107 258.116346 79.189621 258.434615 79.588249 258.752885 79.992947 259.071154 80.403670 259.389423 80.820373 259.707692 81.243014 260.025962 81.671547 260.344231 82.105928 260.662500 82.546113 260.980769 82.992058 261.299038 83.443717 261.617308 83.901048 261.935577 84.364006 262.253846 84.832546 262.572115 85.306625 262.890385 85.786197 263.208654 86.271219 263.526923 86.761646 263.845192 87.257435 264.163462 87.758540 264.481731 88.264918 264.800000 88.776524 265.118269 89.293314 265.436538 89.815244 265.754808 90.342270 266.073077 90.874346 266.391346 91.411430 266.709615 91.953476 267.027885 92.500440 267.346154 93.052279 267.664423 93.608947 267.982692 94.170401 268.300962 94.736596 268.619231 95.307489 268.937500 95.883034 269.255769 96.463187 269.574038 97.047904 269.892308 97.637142 270.210577 98.230855 270.528846 98.828999 270.847115 99.431530 271.165385 100.038405 271.483654 100.649577 271.801923 101.265004 272.120192 101.884641 272.438462 102.508444 272.756731 103.136368 273.075000 103.768369 273.393269 104.404403 273.711538 105.044425 274.029808 105.688392 274.348077 106.336259 274.666346 106.987981 274.984615 107.643515 275.302885 108.302817 275.621154 108.965841 275.939423 109.632544 276.257692 110.302881 276.575962 110.976809 276.894231 111.654282 277.212500 112.335257 277.530769 113.019689 277.849038 113.707534 278.167308 114.398747 278.485577 115.093286 278.803846 115.791104 279.122115 116.492158 279.440385 117.196404 279.758654 117.903798 280.076923 118.614294 280.395192 119.327849 280.713462 120.044419 281.031731 120.763959 281.350000 121.486425 281.668269 122.211772 281.986538 122.939957 282.304808 123.670936 282.623077 124.404663 282.941346 125.141094 283.259615 125.880186 283.577885 126.621894 283.896154 127.366174 284.214423 128.112982 284.532692 128.862272 284.850962 129.614002 285.169231 130.368126 285.487500 131.124600 285.805769 131.883381 286.124038 132.644424 286.442308 133.407684 286.760577 134.173117 287.078846 134.940680 287.397115 135.710327 287.715385 136.482014 288.033654 137.255698 288.351923 138.031334 288.670192 138.808877 288.988462 139.588284 289.306731 140.369510 289.625000 141.152511 289.943269 141.937242 290.261538 142.723660 290.579808 143.511719 290.898077 144.301376 291.216346 145.092587 291.534615 145.885307 291.852885 146.679492 292.171154 147.475097 292.489423 148.272079 292.807692 149.070392 293.125962 149.869994 293.444231 150.670839 293.762500 151.472883 294.080769 152.276083 294.399038 153.080393 294.717308 153.885769 295.035577 154.692168 295.353846 155.499544 295.672115 156.307854 295.990385 157.117053 296.308654 157.927098 296.626923 158.737943 296.945192 159.549544 297.263462 160.361858 297.581731 161.174840 297.900000 161.988445 298.218269 162.802630 298.536538 163.617350 298.854808 164.432561 299.173077 165.248218 299.491346 166.064278 299.809615 166.880695 300.127885 167.697427 300.446154 168.514427 300.764423 169.331653 301.082692 170.149060 301.400962 170.966604 301.719231 171.784240 302.037500 172.601924 302.355769 173.419612 302.674038 174.237259 302.992308 175.054822 303.310577 175.872255 303.628846 176.689515 303.947115 177.506558 304.265385 178.323339 304.583654 179.139814 304.901923 179.955938 305.220192 180.771668 305.538462 181.586959 305.856731 182.401766 306.175000 183.216046 306.493269 184.029755 306.811538 184.842847 307.129808 185.655279 307.448077 186.467006 307.766346 187.277985 308.084615 188.088170 308.402885 188.897518 308.721154 189.705984 309.039423 190.513524 309.357692 191.320094 309.675962 192.125650 309.994231 192.930146 310.312500 193.733540 310.630769 194.535786 310.949038 195.336841 311.267308 196.136660 311.585577 196.935198 311.903846 197.732412 312.222115 198.528258 312.540385 199.322690 312.858654 200.115665 313.176923 200.907139 313.495192 201.697067 313.813462 202.485404 314.131731 203.272108 314.450000 204.057132 314.768269 204.840434 315.086538 205.621969 315.404808 206.401692 315.723077 207.179559 316.041346 207.955526 316.359615 208.729549 316.677885 209.501584 316.996154 210.271585 317.314423 211.039510 317.632692 211.805313 317.950962 212.568950 318.269231 213.330377 318.587500 214.089551 318.905769 214.846425 319.224038 215.600957 319.542308 216.353102 319.860577 217.102815 320.178846 217.850053 320.497115 218.594771 320.815385 219.336925 321.133654 220.076471 321.451923 220.813363 321.770192 221.547559 322.088462 222.279014 322.406731 223.007683 322.725000 223.733522 323.043269 224.456487 323.361538 225.176534 323.679808 225.893618 323.998077 226.607695 324.316346 227.318721 324.634615 228.026652 324.952885 228.731442 325.271154 229.433049 325.589423 230.131428 325.907692 230.826534 326.225962 231.518323 326.544231 232.206751 326.862500 232.891774 327.180769 233.573347 327.499038 234.251426 327.817308 234.925966 328.135577 235.596925 328.453846 236.264256 328.772115 236.927917 329.090385 237.587862 329.408654 238.244048 329.726923 238.896430 330.045192 239.544963 330.363462 240.189605 330.681731 240.830309 331.000000 241.467033 331.318269 242.099740 331.636538 242.728433 331.954808 243.353122 332.273077 243.973817 332.591346 244.590529 332.909615 245.203268 333.227885 245.812045 333.546154 246.416871 333.864423 247.017755 334.182692 247.614709 334.500962 248.207743 334.819231 248.796867 335.137500 249.382093 335.455769 249.963430 335.774038 250.540889 336.092308 251.114481 336.410577 251.684216 336.728846 252.250105 337.047115 252.812157 337.365385 253.370385 337.683654 253.924798 338.001923 254.475406 338.320192 255.022221 338.638462 255.565252 338.956731 256.104511 339.275000 256.640008 339.593269 257.171753 339.911538 257.699757 340.229808 258.224031 340.548077 258.744584 340.866346 259.261428 341.184615 259.774573 341.502885 260.284029 341.821154 260.789808 342.139423 261.291919 342.457692 261.790373 342.775962 262.285181 343.094231 262.776353 343.412500 263.263899 343.730769 263.747831 344.049038 264.228158 344.367308 264.704892 344.685577 265.178042 345.003846 265.647620 345.322115 266.113635 345.640385 266.576099 345.958654 267.035022 346.276923 267.490414 346.595192 267.942286 346.913462 268.390648 347.231731 268.835511 347.550000 269.276886 347.868269 269.714783 348.186538 270.149212 348.504808 270.580184 348.823077 271.007710 349.141346 271.431800 349.459615 271.852465 349.777885 272.269714 350.096154 272.683560 350.414423 273.094011 350.732692 273.501079 351.050962 273.904775 351.369231 274.305108 351.687500 274.702090 352.005769 275.095730 352.324038 275.486039 352.642308 275.873029 352.960577 276.256709 353.278846 276.637089 353.597115 277.014181 353.915385 277.387995 354.233654 277.758542 354.551923 278.125831 354.870192 278.489874 355.188462 278.850681 355.506731 279.208263 355.825000 279.562630 356.143269 279.913792 356.461538 280.261760 356.779808 280.606545 357.098077 280.948158 357.416346 281.286607 357.734615 281.621906 358.052885 281.954063 358.371154 282.283089 358.689423 282.608995 359.007692 282.931791 359.325962 283.251488 359.644231 283.568096 359.962500 283.881627 360.280769 284.192090 360.599038 284.499495 360.917308 284.803854 361.235577 285.105178 361.553846 285.403475 361.872115 285.698758 362.190385 285.991036 362.508654 286.280320 362.826923 286.566621 363.145192 286.849949 363.463462 287.130315 363.781731 287.407729 364.100000 287.682201 364.418269 287.953743 364.736538 288.222365 365.054808 288.488076 365.373077 288.750889 365.691346 289.010813 366.009615 289.267859 366.327885 289.522037 366.646154 289.773358 366.964423 290.021832 367.282692 290.267470 367.600962 290.510283 367.919231 290.750281 368.237500 290.987474 368.555769 291.221873 368.874038 291.453489 369.192308 291.682332 369.510577 291.908412 369.828846 292.131741 370.147115 292.352328 370.465385 292.570184 370.783654 292.785320 371.101923 292.997747 371.420192 293.207474 371.738462 293.414512 372.056731 293.618872 372.375000 293.820564 372.693269 294.019599 373.011538 294.215988 373.329808 294.409740 373.648077 294.600867 373.966346 294.789379 374.284615 294.975286 374.602885 295.158599 374.921154 295.339329 375.239423 295.517486 375.557692 295.693080 375.875962 295.866122 376.194231 296.036623 376.512500 296.204593 376.830769 296.370043 377.149038 296.532983 377.467308 296.693423 377.785577 296.851375 378.103846 297.006848 378.422115 297.159854 378.740385 297.310402 379.058654 297.458504 379.376923 297.604170 379.695192 297.747410 380.013462 297.888235 380.331731 298.026655 380.650000 298.162681 380.968269 298.296323 381.286538 298.427593 381.604808 298.556500 381.923077 298.683055 382.241346 298.807269 382.559615 298.929151 382.877885 299.048714 383.196154 299.165966 383.514423 299.280919 383.832692 299.393583 384.150962 299.503969 384.469231 299.612087 384.787500 299.717948 385.105769 299.821562 385.424038 299.922940 385.742308 300.022092 386.060577 300.119028 386.378846 300.213761 386.697115 300.306299 387.015385 300.396653 387.333654 300.484835 387.651923 300.570854 387.970192 300.654721 388.288462 300.736446 388.606731 300.816040 388.925000 300.893514 389.243269 300.968878 389.561538 301.042142 389.879808 301.113318 390.198077 301.182415 390.516346 301.249445 390.834615 301.314417 391.152885 301.377342 391.471154 301.438231 391.789423 301.497094 392.107692 301.553942 392.425962 301.608786 392.744231 301.661635 393.062500 301.712500 393.380769 301.761393 393.699038 301.808322 394.017308 301.853300 394.335577 301.896336 394.653846 301.937441 394.972115 301.976625 395.290385 302.013900 395.608654 302.049275 395.926923 302.082761 396.245192 302.114369 396.563462 302.144109 396.881731 302.171991 397.200000 302.198027 397.518269 302.222226 397.836538 302.244599 398.154808 302.265157 398.473077 302.283911 398.791346 302.300870 399.109615 302.316045 399.427885 302.329447 399.746154 302.341087 400.064423 302.350975 400.382692 302.359120 400.700962 302.365535 401.019231 302.370229 401.337500 302.373213 401.655769 302.374498 401.974038 302.374094 402.292308 302.372011 402.610577 302.368260 402.928846 302.362852 403.247115 302.355796 403.565385 302.347105 403.883654 302.336788 404.201923 302.324855 404.520192 302.311317 404.838462 302.296185 405.156731 302.279470 405.475000 302.261181 405.793269 302.241330 406.111538 302.219926 406.429808 302.196980 406.748077 302.172504 407.066346 302.146507 407.384615 302.118999 407.702885 302.089993 408.021154 302.059497 408.339423 302.027522 408.657692 301.994080 408.975962 301.959180 409.294231 301.922833 409.612500 301.885050 409.930769 301.845841 410.249038 301.805216 410.567308 301.763187 410.885577 301.719764 411.203846 301.674965 411.522115 301.628806 411.840385 301.581306 412.158654 301.532482 412.476923 301.482352 412.795192 301.430932 413.113462 301.378241 413.431731 301.324297 413.750000 301.269117 414.068269 301.212718 414.386538 301.155118 414.704808 301.096334 415.023077 301.036385 415.341346 300.975288 415.659615 300.913060 415.977885 300.849719 416.296154 300.785282 416.614423 300.719768 416.932692 300.653193 417.250962 300.585576 417.569231 300.516933 417.887500 300.447283 418.205769 300.376643 418.524038 300.305030 418.842308 300.232463 419.160577 300.158958 419.478846 300.084534 419.797115 300.009208 420.115385 299.932997 420.433654 299.855919 420.751923 299.777992 421.070192 299.699233 421.388462 299.619660 421.706731 299.539291 422.025000 299.458142 422.343269 299.376232 422.661538 299.293578 422.979808 299.210198 423.298077 299.126109 423.616346 299.041329 423.934615 298.955875 424.252885 298.869766 424.571154 298.783018 424.889423 298.695649 425.207692 298.607677 425.525962 298.519119 425.844231 298.429994 426.162500 298.340318 426.480769 298.250109 426.799038 298.159385 427.117308 298.068163 427.435577 297.976460 427.753846 297.884296 428.072115 297.791686 428.390385 297.698649 428.708654 297.605202 429.026923 297.511363 429.345192 297.417149 429.663462 297.322578 429.981731 297.227667 430.300000 297.132435 430.618269 297.036898 430.936538 296.941075 431.254808 296.844982 431.573077 296.748638 431.891346 296.652059 432.209615 296.555265 432.527885 296.458271 432.846154 296.361096 433.164423 296.263757 433.482692 296.166273 433.800962 296.068659 434.119231 295.970935 434.437500 295.873118 434.755769 295.775224 435.074038 295.677273 435.392308 295.579280 435.710577 295.481265 436.028846 295.383244 436.347115 295.285236 436.665385 295.187257 436.983654 295.089325 437.301923 294.991458 437.620192 294.893674 437.938462 294.795989 438.256731 294.698422 438.575000 294.600990 438.893269 294.503712 439.211538 294.406603 439.529808 294.309682 439.848077 294.212967 440.166346 294.116475 440.484615 294.020223 440.802885 293.924230 441.121154 293.828513 441.439423 293.733089 441.757692 293.637975 442.075962 293.543191 442.394231 293.448752 442.712500 293.354678 443.030769 293.260984 443.349038 293.167690 443.667308 293.074812 443.985577 292.982368 444.303846 292.890375 444.622115 292.798852 444.940385 292.707816 445.258654 292.617284 445.576923 292.527273 445.895192 292.437803 446.213462 292.348889 446.531731 292.260550 446.850000 292.172804 447.168269 292.085667 447.486538 291.999158 447.804808 291.913294 448.123077 291.828092 448.441346 291.743570 448.759615 291.659746 449.077885 291.576638 449.396154 291.494262 449.714423 291.412637 450.032692 291.331780 450.350962 291.251709 450.669231 291.172441 450.987500 291.093993 451.305769 291.016384 451.624038 290.939631 451.942308 290.863752 452.260577 290.788764 452.578846 290.714684 452.897115 290.641531 453.215385 290.569321 453.533654 290.498073 453.851923 290.427804 454.170192 290.358532 454.488462 290.290274 454.806731 290.223047 455.125000 290.156870 455.443269 290.091760 455.761538 290.027735 456.079808 289.964811 456.398077 289.903007 456.716346 289.842341 457.034615 289.782829 457.352885 289.724490 457.671154 289.667341 457.989423 289.611399 458.307692 289.556682 458.625962 289.503209 458.944231 289.450995 459.262500 289.400059 459.580769 289.350419 459.899038 289.302092 460.217308 289.255096 460.535577 289.209448 460.853846 289.165165 461.172115 289.122266 461.490385 289.080768 461.808654 289.040689 462.126923 289.002046 462.445192 288.964856 462.763462 288.929138 463.081731 288.894908 463.400000 288.862185 463.718269 288.830986 464.036538 288.801329 464.354808 288.773230 464.673077 288.746709 464.991346 288.721782 465.309615 288.698467 465.627885 288.676781 465.946154 288.656742 466.264423 288.638369 466.582692 288.621677 466.900962 288.606685 467.219231 288.593411 467.537500 288.581871 467.855769 288.572085 468.174038 288.564068 468.492308 288.557839 468.810577 288.553415 469.128846 288.550815 469.447115 288.550054 469.765385 288.551152 470.083654 288.554126 470.401923 288.558992 470.720192 288.565770 471.038462 288.574476 471.356731 288.585128 471.675000 288.597743 471.993269 288.612339 472.311538 288.628935 472.629808 288.647546 472.948077 288.668191 473.266346 288.690888 473.584615 288.715654 473.902885 288.742506 474.221154 288.771463 474.539423 288.802541 474.857692 288.835759 475.175962 288.871134 475.494231 288.908683 475.812500 288.948424 476.130769 288.990375 476.449038 289.034553 476.767308 289.080976 477.085577 289.129662 477.403846 289.180627 477.722115 289.233890 478.040385 289.289468 478.358654 289.347379 478.676923 289.407640 478.995192 289.470269 479.313462 289.535284 479.631731 289.602701 479.950000 289.672539 480.268269 289.744816 480.586538 289.819548 480.904808 289.896754 481.223077 289.976450 481.541346 290.058655 481.859615 290.143387 482.177885 290.230661 482.496154 290.320498 482.814423 290.412913 483.132692 290.507924 483.450962 290.605550 483.769231 290.705807 484.087500 290.808713 484.405769 290.914286 484.724038 291.022544 485.042308 291.133503 485.360577 291.247182 485.678846 291.363598 485.997115 291.482768 486.315385 291.604711 486.633654 291.729444 486.951923 291.856984 487.270192 291.987349 487.588462 292.120556 487.906731 292.256624 488.225000 292.395570 488.543269 292.537410 488.861538 292.682164 489.179808 292.829848 489.498077 292.980480 489.816346 293.134078 490.134615 293.290659 490.452885 293.450236 490.771154 293.612797 491.089423 293.778327 491.407692 293.946810 491.725962 294.118230 492.044231 294.292571 492.362500 294.469817 492.680769 294.649953 492.999038 294.832961 493.317308 295.018827 493.635577 295.207535 493.953846 295.399068 494.272115 295.593410 494.590385 295.790547 494.908654 295.990460 495.226923 296.193136 495.545192 296.398557 495.863462 296.606708 496.181731 296.817573 496.500000 297.031136 496.818269 297.247380 497.136538 297.466291 497.454808 297.687852 497.773077 297.912047 498.091346 298.138861 498.409615 298.368277 498.727885 298.600279 499.046154 298.834851 499.364423 299.071978 499.682692 299.311644 500.000962 299.553832 500.319231 299.798527 500.637500 300.045713 500.955769 300.295373 501.274038 300.547493 501.592308 300.802055 501.910577 301.059044 502.228846 301.318444 502.547115 301.580239 502.865385 301.844414 503.183654 302.110952 503.501923 302.379837 503.820192 302.651053 504.138462 302.924585 504.456731 303.200416 504.775000 303.478530 505.093269 303.758913 505.411538 304.041547 505.729808 304.326416 506.048077 304.613506 506.366346 304.902799 506.684615 305.194280 507.002885 305.487933 507.321154 305.783742 507.639423 306.081691 507.957692 306.381764 508.275962 306.683946 508.594231 306.988219 508.912500 307.294569 509.230769 307.602980 509.549038 307.913435 509.867308 308.225918 510.185577 308.540414 510.503846 308.856906 510.822115 309.175379 511.140385 309.495817 511.458654 309.818204 511.776923 310.142524 512.095192 310.468760 512.413462 310.796897 512.731731 311.126920 513.050000 311.458811 513.368269 311.792556 513.686538 312.128138 514.004808 312.465541 514.323077 312.804750 514.641346 313.145748 514.959615 313.488519 515.277885 313.833048 515.596154 314.179319 515.914423 314.527315 516.232692 314.877021 516.550962 315.228421 516.869231 315.581498 517.187500 315.936237 517.505769 316.292623 517.824038 316.650638 518.142308 317.010268 518.460577 317.371495 518.778846 317.734305 519.097115 318.098681 519.415385 318.464607 519.733654 318.832068 520.051923 319.201047 520.370192 319.571528 520.688462 319.943497 521.006731 320.316935 521.325000 320.691829 521.643269 321.068161 521.961538 321.445916 522.279808 321.825078 522.598077 322.205631 522.916346 322.587558 523.234615 322.970845 523.552885 323.355475 523.871154 323.741432 524.189423 324.128700 524.507692 324.517264 524.825962 324.907107 525.144231 325.298213 525.462500 325.690567 525.780769 326.084152 526.099038 326.478953 526.417308 326.874954 526.735577 327.272138 527.053846 327.670490 527.372115 328.069994 527.690385 328.470634 528.008654 328.872393 528.326923 329.275257 528.645192 329.679209 528.963462 330.084233 529.281731 330.490313 529.600000 330.897433 529.918269 331.305578 530.236538 331.714731 530.554808 332.124876 530.873077 332.535998 531.191346 332.948081 531.509615 333.361108 531.827885 333.775064 532.146154 334.189933 532.464423 334.605698 532.782692 335.022344 533.100962 335.439855 533.419231 335.858216 533.737500 336.277409 534.055769 336.697419 534.374038 337.118230 534.692308 337.539827 535.010577 337.962193 535.328846 338.385312 535.647115 338.809169 535.965385 339.233747 536.283654 339.659031 536.601923 340.085004 536.920192 340.511651 537.238462 340.938956 537.556731 341.366903 537.875000 341.795475 538.193269 342.224657 538.511538 342.654433 538.829808 343.084787 539.148077 343.515704 539.466346 343.947166 539.784615 344.379158 540.102885 344.811665 540.421154 345.244670 540.739423 345.678158 541.057692 346.112112 541.375962 346.546516 541.694231 346.981355 542.012500 347.416613 542.330769 347.852273 542.649038 348.288320 542.967308 348.724738 543.285577 349.161511 543.603846 349.598622 543.922115 350.036057 544.240385 350.473799 544.558654 350.911831 544.876923 351.350139 545.195192 351.788707 545.513462 352.227517 545.831731 352.666555 546.150000 353.105804 546.468269 353.545249 546.786538 353.984873 547.104808 354.424661 547.423077 354.864596 547.741346 355.304663 548.059615 355.744846 548.377885 356.185129 548.696154 356.625496 549.014423 357.065930 549.332692 357.506417 549.650962 357.946940 549.969231 358.387483 550.287500 358.828030 550.605769 359.268565 550.924038 359.709073 551.242308 360.149537 551.560577 360.589941 551.878846 361.030270 552.197115 361.470508 552.515385 361.910638 552.833654 362.350645 553.151923 362.790512 553.470192 363.230225 553.788462 363.669766 554.106731 364.109120 554.425000 364.548271 554.743269 364.987204 555.061538 365.425901 555.379808 365.864347 555.698077 366.302527 556.016346 366.740424 556.334615 367.178022 556.652885 367.615306 556.971154 368.052260 557.289423 368.488866 557.607692 368.925111 557.925962 369.360977 558.244231 369.796448 558.562500 370.231510 558.880769 370.666145 559.199038 371.100339 559.517308 371.534074 559.835577 371.967335 560.153846 372.400106 560.472115 372.832372 560.790385 373.264115 561.108654 373.695321 561.426923 374.125974 561.745192 374.556056 562.063462 374.985553 562.381731 375.414449 562.700000 375.842727 563.018269 376.270372 563.336538 376.697367 563.654808 377.123697 563.973077 377.549346 564.291346 377.974298 564.609615 378.398537 564.927885 378.822047 565.246154 379.244812 565.564423 379.666816 565.882692 380.088043 566.200962 380.508477 566.519231 380.928103 566.837500 381.346904 567.155769 381.764864 567.474038 382.181968 567.792308 382.598199 568.110577 383.013542 568.428846 383.427981 568.747115 383.841500 569.065385 384.254082 569.383654 384.665712 569.701923 385.076374 570.020192 385.486055 570.338462 385.894756 570.656731 386.302481 570.975000 386.709233 571.293269 387.115018 571.611538 387.519838 571.929808 387.923697 572.248077 388.326601 572.566346 388.728551 572.884615 389.129553 573.202885 389.529610 573.521154 389.928727 573.839423 390.326907 574.157692 390.724153 574.475962 391.120471 574.794231 391.515864 575.112500 391.910336 575.430769 392.303891 575.749038 392.696532 576.067308 393.088265 576.385577 393.479092 576.703846 393.869017 577.022115 394.258046 577.340385 394.646180 577.658654 395.033425 577.976923 395.419785 578.295192 395.805262 578.613462 396.189862 578.931731 396.573589 579.250000 396.956445 579.568269 397.338435 579.886538 397.719563 580.204808 398.099834 580.523077 398.479250 580.841346 398.857815 581.159615 399.235535 581.477885 399.612412 581.796154 399.988451 582.114423 400.363655 582.432692 400.738029 582.750962 401.111577 583.069231 401.484301 583.387500 401.856207 583.705769 402.227298 584.024038 402.597578 584.342308 402.967052 584.660577 403.335722 584.978846 403.703593 585.297115 404.070669 585.615385 404.436954 585.933654 404.802452 586.251923 405.167167 586.570192 405.531102 586.888462 405.894262 587.206731 406.256650 587.525000 406.618271 587.843269 406.979128 588.161538 407.339225 588.479808 407.698567 588.798077 408.057156 589.116346 408.414998 589.434615 408.772096 589.752885 409.128454 590.071154 409.484076 590.389423 409.838966 590.707692 410.193128 591.025962 410.546565 591.344231 410.899282 591.662500 411.251283 591.980769 411.602571 592.299038 411.953151 592.617308 412.303026 592.935577 412.652201 593.253846 413.000679 593.572115 413.348464 593.890385 413.695560 594.208654 414.041971 594.526923 414.387702 594.845192 414.732755 595.163462 415.077136 595.481731 415.420847 595.800000 415.763893 596.118269 416.106277 596.436538 416.448005 596.754808 416.789079 597.073077 417.129503 597.391346 417.469282 597.709615 417.808419 598.027885 418.146919 598.346154 418.484785 598.664423 418.822021 598.982692 419.158631 599.300962 419.494620 599.619231 419.829990 599.937500 420.164747 600.255769 420.498893 600.574038 420.832433 600.892308 421.165371 601.210577 421.497711 601.528846 421.829456 601.847115 422.160611 602.165385 422.491179 602.483654 422.821165 602.801923 423.150572 603.120192 423.479404 603.438462 423.807666 603.756731 424.135361 604.075000 424.462493 604.393269 424.789066 604.711538 425.115084 605.029808 425.440551 605.348077 425.765471 605.666346 426.089848 605.984615 426.413685 606.302885 426.736988 606.621154 427.059758 606.939423 427.382002 607.257692 427.703722 607.575962 428.024922 607.894231 428.345606 608.212500 428.665779 608.530769 428.985445 608.849038 429.304606 609.167308 429.623267 609.485577 429.941433 609.803846 430.259106 610.122115 430.576292 610.440385 430.892993 610.758654 431.209214 611.076923 431.524959 611.395192 431.840231 611.713462 432.155035 612.031731 432.469375 612.350000 432.783254 612.668269 433.096676 612.986538 433.409646 613.304808 433.722167 613.623077 434.034243 613.941346 434.345878 614.259615 434.657077 614.577885 434.967842 614.896154 435.278179 615.214423 435.588090 615.532692 435.897580 615.850962 436.206653 616.169231 436.515313 616.487500 436.823563 616.805769 437.131408 617.124038 437.438852 617.442308 437.745897 617.760577 438.052550 618.078846 438.358812 618.397115 438.664689 618.715385 438.970184 619.033654 439.275301 619.351923 439.580044 619.670192 439.884417 619.988462 440.188425 620.306731 440.492070 620.625000 440.795356 620.943269 441.098289 621.261538 441.400871 621.579808 441.703107 621.898077 442.005000 622.216346 442.306555 622.534615 442.607776 622.852885 442.908665 623.171154 443.209228 623.489423 443.509468 623.807692 443.809390 624.125962 444.108996 624.444231 444.408292 624.762500 444.707280 625.080769 445.005966 625.399038 445.304352 625.717308 445.602443 626.035577 445.900243 626.353846 446.197755 626.672115 446.494984 626.990385 446.791934 627.308654 447.088608 627.626923 447.385011 627.945192 447.681145 628.263462 447.977016 628.581731 448.272628 628.900000 448.567983 629.218269 448.863087 629.536538 449.157942 629.854808 449.452554 630.173077 449.746925 630.491346 450.041060 630.809615 450.334963 631.127885 450.628638 631.446154 450.922088 631.764423 451.215318 632.082692 451.508332 632.400962 451.801133 632.719231 452.093725 633.037500 452.386112 633.355769 452.678299 633.674038 452.970289 633.992308 453.262086 634.310577 453.553695 634.628846 453.845118 634.947115 454.136360 635.265385 454.427425 635.583654 454.718317 635.901923 455.009040 636.220192 455.299597 636.538462 455.589993 636.856731 455.880231 637.175000 456.170316 637.493269 456.460251 637.811538 456.750041 638.129808 457.039689 638.448077 457.329199 638.766346 457.618576 639.084615 457.907822 639.402885 458.196943 639.721154 458.485941 640.039423 458.774822 640.357692 459.063588 640.675962 459.352244 640.994231 459.640794 641.312500 459.929242 641.630769 460.217591 641.949038 460.505845 642.267308 460.794009 642.585577 461.082087 642.903846 461.370082 643.222115 461.657998 643.540385 461.945839 643.858654 462.233610 644.176923 462.521313 644.495192 462.808954 644.813462 463.096535 645.131731 463.384062 645.450000 463.671537 645.768269 463.958965 646.086538 464.246350 646.404808 464.533695 646.723077 464.821005 647.041346 465.108283 647.359615 465.395534 647.677885 465.682761 647.996154 465.969969 648.314423 466.257161 648.632692 466.544341 648.950962 466.831513 649.269231 467.118681 649.269231 504.115385" /></g></g><g class="titles"><text class="title plot_title" x="400.0" y="26">Share update</text></g><g class="plot overlay" transform="translate(118, 46)"><g class="series serie-0 color-0"><g class="dots"><circle class="dot reactive tooltip-trigger" cx="12.73076923076923" cy="276.628021978022" r="2.5" /><desc class="value">1611</desc><desc class="x top">12.73076923076923</desc><desc class="y top">276.628021978022</desc><desc class="x_label">25-Oct</desc></g><g class="dots"><circle class="dot reactive tooltip-trigger" cx="92.29807692307692" cy="29.51263736263735" r="2.5" /><desc class="value">3361</desc><desc class="x ">92.29807692307692</desc><desc class="y ">29.51263736263735</desc><desc class="x_label">3-Nov</desc></g><g class="dots"><circle class="dot reactive tooltip-trigger" cx="171.8653846153846" cy="92.35054945054947" r="2.5" /><desc class="value">2916</desc><desc class="x ">171.8653846153846</desc><desc class="y ">92.35054945054947</desc><desc class="x_label">6-Nov</desc></g><g class="dots"><circle class="dot reactive tooltip-trigger" cx="251.43269230769232" cy="72.29890109890113" r="2.5" /><desc class="value">3058</desc><desc class="x ">251.43269230769232</desc><desc class="y ">72.29890109890113</desc><desc class="x_label">9-Nov</desc></g><g class="dots"><circle class="dot reactive tooltip-trigger" cx="331.0" cy="241.467032967033" r="2.5" /><desc class="value">1860</desc><desc class="x ">331.0</desc><desc class="y ">241.467032967033</desc><desc class="x_label">16-Nov</desc></g><g class="dots"><circle class="dot reactive tooltip-trigger" cx="410.5673076923077" cy="301.76318681318685" r="2.5" /><desc class="value">1433</desc><desc class="x left top">410.5673076923077</desc><desc class="y left top">301.76318681318685</desc><desc class="x_label">21-Nov</desc></g><g class="dots"><circle class="dot reactive tooltip-trigger" cx="490.13461538461536" cy="293.2906593406593" r="2.5" /><desc class="value">1493</desc><desc class="x left top">490.13461538461536</desc><desc class="y left top">293.2906593406593</desc><desc class="x_label">22-Nov</desc></g><g class="dots"><circle class="dot reactive tooltip-trigger" cx="569.7019230769231" cy="385.07637362637365" r="2.5" /><desc class="value">843</desc><desc class="x left top">569.7019230769231</desc><desc class="y left top">385.07637362637365</desc><desc class="x_label">24-Nov</desc></g><g class="dots"><circle class="dot reactive tooltip-trigger" cx="649.2692307692307" cy="467.1186813186813" r="2.5" /><desc class="value">262</desc><desc class="x left top">649.2692307692307</desc><desc class="y left top">467.1186813186813</desc><desc class="x_label">25-Nov</desc></g></g></g><g class="plot text-overlay" transform="translate(118, 46)"><g class="series serie-0 color-0" /></g><g class="plot tooltip-overlay" transform="translate(118, 46)"><g class="tooltip" style="opacity: 0" transform="translate(0 0)"><rect class="tooltip-box" height="0" rx="0" ry="0" width="0" /><g class="text" /></g></g><g class="legends" transform="translate(10, 56)"><g class="legend reactive activate-serie" id="activate-serie-0"><rect class="color-0 reactive" height="12" width="12" x="0.0" y="1.0" /><text x="17.0" y="11.2">SHARE</text></g></g><g class="legends" transform="translate(790, 56)" /></g></svg>