<?xml version='1.0' encoding='utf-8'?>
<svg xmlns:xlink="http://www.w3.org/1999/xlink" class="pygal-chart" id="chart-17724bb1-e0df-4421-b424-03fd22078d17" viewBox="0 0 800 600" xmlns="http://www.w3.org/2000/svg"><!--Generated with pygal 2.4.0 (etree) ©Kozea 2012-2016 on 2018-11-30--><!--http://pygal.org--><!--http://github.com/Kozea/pygal--><defs><style type="text/css">#chart-17724bb1-e0df-4421-b424-03fd22078d17{-webkit-user-select:none;-webkit-font-smoothing:antialiased;font-family:Consolas,"Liberation Mono",Menlo,Courier,monospace}#chart-17724bb1-e0df-4421-b424-03fd22078d17 .title{font-family:Consolas,"Liberation Mono",Menlo,Courier,monospace;font-size:16px}#chart-17724bb1-e0df-4421-b424-03fd22078d17 .legends .legend text{font-family:Consolas,"Liberation Mono",Menlo,Courier,monospace;font-size:14px}#chart-17724bb1-e0df-4421-b424-03fd22078d17 .axis text{font-family:Consolas,"Liberation Mono",Menlo,Courier,monospace;font-size:10px}#chart-17724bb1-e0df-4421-b424-03fd22078d17 .axis text.major{font-family:Consolas,"Liberation Mono",Menlo,Courier,monospace;font-size:10px}#chart-17724bb1-e0df-4421-b424-03fd22078d17 .text-overlay text.value{font-family:Consolas,"Liberation Mono",Menlo,Courier,monospace;font-size:16px}#chart-17724bb1-e0df-4421-b424-03fd22078d17 .text-overlay text.label{font-family:Consolas,"Liberation Mono",Menlo,Courier,monospace;font-size:10px}#chart-17724bb1-e0df-4421-b424-03fd22078d17 .tooltip{font-family:Consolas,"Liberation Mono",Menlo,Courier,monospace;font-size:14px}#chart-17724bb1-e0df-4421-b424-03fd22078d17 text.no_data{font-family:Consolas,"Liberation Mono",Menlo,Courier,monospace;font-size:64px}
#chart-17724bb1-e0df-4421-b424-03fd22078d17{background-color:#f8f8f8}#chart-17724bb1-e0df-4421-b424-03fd22078d17 path,#chart-17724bb1-e0df-4421-b424-03fd22078d17 line,#chart-17724bb1-e0df-4421-b424-03fd22078d17 rect,#chart-17724bb1-e0df-4421-b424-03fd22078d17 circle{-webkit-transition:250ms ease-in;-moz-transition:250ms ease-in;transition:250ms ease-in}#chart-17724bb1-e0df-4421-b424-03fd22078d17 .graph &gt; .background{fill:#f8f8f8}#chart-17724bb1-e0df-4421-b424-03fd22078d17 .plot &gt; .background{fill:#ffffff}#chart-17724bb1-e0df-4421-b424-03fd22078d17 .graph{fill:#333}#chart-17724bb1-e0df-4421-b424-03fd22078d17 text.no_data{fill:#666}#chart-17724bb1-e0df-4421-b424-03fd22078d17 .title{fill:#666}#chart-17724bb1-e0df-4421-b424-03fd22078d17 .legends .legend text{fill:#333}#chart-17724bb1-e0df-4421-b424-03fd22078d17 .legends .legend:hover text{fill:#666}#chart-17724bb1-e0df-4421-b424-03fd22078d17 .axis .line{stroke:#666}#chart-17724bb1-e0df-4421-b424-03fd22078d17 .axis .guide.line{stroke:rgba(0,0,0,0.5)}#chart-17724bb1-e0df-4421-b424-03fd22078d17 .axis .major.line{stroke:#333}#chart-17724bb1-e0df-4421-b424-03fd22078d17 .axis text.major{fill:#666}#chart-17724bb1-e0df-4421-b424-03fd22078d17 .axis.y .guides:hover .guide.line,#chart-17724bb1-e0df-4421-b424-03fd22078d17 .line-graph .axis.x .guides:hover .guide.line,#chart-17724bb1-e0df-4421-b424-03fd22078d17 .stackedline-graph .axis.x .guides:hover .guide.line,#chart-17724bb1-e0df-4421-b424-03fd22078d17 .xy-graph .axis.x .guides:hover .guide.line{stroke:#666}#chart-17724bb1-e0df-4421-b424-03fd22078d17 .axis .guides:hover text{fill:#666}#chart-17724bb1-e0df-4421-b424-03fd22078d17 .reactive{fill-opacity:.5;stroke-opacity:.8}#chart-17724bb1-e0df-4421-b424-03fd22078d17 .ci{stroke:#333}#chart-17724bb1-e0df-4421-b424-03fd22078d17 .reactive.active,#chart-17724bb1-e0df-4421-b424-03fd22078d17 .active .reactive{fill-opacity:.9;stroke-opacity:.9;stroke-width:4}#chart-17724bb1-e0df-4421-b424-03fd22078d17 .ci .reactive.active{stroke-width:1.5}#chart-17724bb1-e0df-4421-b424-03fd22078d17 .series text{fill:#666}#chart-17724bb1-e0df-4421-b424-03fd22078d17 .tooltip rect{fill:#ffffff;stroke:#666;-webkit-transition:opacity 250ms ease-in;-moz-transition:opacity 250ms ease-in;transition:opacity 250ms ease-in}#chart-17724bb1-e0df-4421-b424-03fd22078d17 .tooltip .label{fill:#333}#chart-17724bb1-e0df-4421-b424-03fd22078d17 .tooltip .label{fill:#333}#chart-17724bb1-e0df-4421-b424-03fd22078d17 .tooltip .legend{font-size:.8em;fill:rgba(0,0,0,0.5)}#chart-17724bb1-e0df-4421-b424-03fd22078d17 .tooltip .x_label{font-size:.6em;fill:#666}#chart-17724bb1-e0df-4421-b424-03fd22078d17 .tooltip .xlink{font-size:.5em;text-decoration:underline}#chart-17724bb1-e0df-4421-b424-03fd22078d17 .tooltip .value{font-size:1.5em}#chart-17724bb1-e0df-4421-b424-03fd22078d17 .bound{font-size:.5em}#chart-17724bb1-e0df-4421-b424-03fd22078d17 .max-value{font-size:.75em;fill:rgba(0,0,0,0.5)}#chart-17724bb1-e0df-4421-b424-03fd22078d17 .map-element{fill:#ffffff;stroke:rgba(0,0,0,0.5) !important}#chart-17724bb1-e0df-4421-b424-03fd22078d17 .map-element .reactive{fill-opacity:inherit;stroke-opacity:inherit}#chart-17724bb1-e0df-4421-b424-03fd22078d17 .color-0,#chart-17724bb1-e0df-4421-b424-03fd22078d17 .color-0 a:visited{stroke:#fe9592;fill:#fe9592}#chart-17724bb1-e0df-4421-b424-03fd22078d17 .text-overlay .color-0 text{fill:black}
#chart-17724bb1-e0df-4421-b424-03fd22078d17 text.no_data{text-anchor:middle}#chart-17724bb1-e0df-4421-b424-03fd22078d17 .guide.line{fill:none}#chart-17724bb1-e0df-4421-b424-03fd22078d17 .centered{text-anchor:middle}#chart-17724bb1-e0df-4421-b424-03fd22078d17 .title{text-anchor:middle}#chart-17724bb1-e0df-4421-b424-03fd22078d17 .legends .legend text{fill-opacity:1}#chart-17724bb1-e0df-4421-b424-03fd22078d17 .axis.x text{text-anchor:middle}#chart-17724bb1-e0df-4421-b424-03fd22078d17 .axis.x:not(.web) text[transform]{text-anchor:start}#chart-17724bb1-e0df-4421-b424-03fd22078d17 .axis.x:not(.web) text[transform].backwards{text-anchor:end}#chart-17724bb1-e0df-4421-b424-03fd22078d17 .axis.y text{text-anchor:end}#chart-17724bb1-e0df-4421-b424-03fd22078d17 .axis.y text[transform].backwards{text-anchor:start}#chart-17724bb1-e0df-4421-b424-03fd22078d17 .axis.y2 text{text-anchor:start}#chart-17724bb1-e0df-4421-b424-03fd22078d17 .axis.y2 text[transform].backwards{text-anchor:end}#chart-17724bb1-e0df-4421-b424-03fd22078d17 .axis .guide.line{stroke-dasharray:4,4}#chart-17724bb1-e0df-4421-b424-03fd22078d17 .axis .major.guide.line{stroke-dasharray:6,6}#chart-17724bb1-e0df-4421-b424-03fd22078d17 .horizontal .axis.y .guide.line,#chart-17724bb1-e0df-4421-b424-03fd22078d17 .horizontal .axis.y2 .guide.line,#chart-17724bb1-e0df-4421-b424-03fd22078d17 .vertical .axis.x .guide.line{opacity:0}#chart-17724bb1-e0df-4421-b424-03fd22078d17 .horizontal .axis.always_show .guide.line,#chart-17724bb1-e0df-4421-b424-03fd22078d17 .vertical .axis.always_show .guide.line{opacity:1 !important}#chart-17724bb1-e0df-4421-b424-03fd22078d17 .axis.y .guides:hover .guide.line,#chart-17724bb1-e0df-4421-b424-03fd22078d17 .axis.y2 .guides:hover .guide.line,#chart-17724bb1-e0df-4421-b424-03fd22078d17 .axis.x .guides:hover .guide.line{opacity:1}#chart-17724bb1-e0df-4421-b424-03fd22078d17 .axis .guides:hover text{opacity:1}#chart-17724bb1-e0df-4421-b424-03fd22078d17 .nofill{fill:none}#chart-17724bb1-e0df-4421-b424-03fd22078d17 .subtle-fill{fill-opacity:.2}#chart-17724bb1-e0df-4421-b424-03fd22078d17 .dot{stroke-width:1px;fill-opacity:1}#chart-17724bb1-e0df-4421-b424-03fd22078d17 .dot.active{stroke-width:5px}#chart-17724bb1-e0df-4421-b424-03fd22078d17 .dot.negative{fill:transparent}#chart-17724bb1-e0df-4421-b424-03fd22078d17 text,#chart-17724bb1-e0df-4421-b424-03fd22078d17 tspan{stroke:none !important}#chart-17724bb1-e0df-4421-b424-03fd22078d17 .series text.active{opacity:1}#chart-17724bb1-e0df-4421-b424-03fd22078d17 .tooltip rect{fill-opacity:.95;stroke-width:.5}#chart-17724bb1-e0df-4421-b424-03fd22078d17 .tooltip text{fill-opacity:1}#chart-17724bb1-e0df-4421-b424-03fd22078d17 .showable{visibility:hidden}#chart-17724bb1-e0df-4421-b424-03fd22078d17 .showable.shown{visibility:visible}#chart-17724bb1-e0df-4421-b424-03fd22078d17 .gauge-background{fill:rgba(229,229,229,1);stroke:none}#chart-17724bb1-e0df-4421-b424-03fd22078d17 .bg-lines{stroke:#f8f8f8;stroke-width:2px}</style><script type="text/javascript">window.pygal = window.pygal || {};window.pygal.config = window.pygal.config || {};window.pygal.config['17724bb1-e0df-4421-b424-03fd22078d17'] = {"allow_interruptions": false, "box_mode": "extremes", "classes": ["pygal-chart"], "css": ["file://style.css", "file://graph.css"], "defs": [], "disable_xml_declaration": false, "dots_size": 2.5, "dynamic_print_values": false, "explicit_size": false, "fill": true, "force_uri_protocol": "https", "formatter": null, "half_pie": false, "height": 600, "include_x_axis": false, "inner_radius": 0, "interpolate": "cubic", "interpolation_parameters": {}, "interpolation_precision": 250, "inverse_y_axis": false, "js": ["//kozea.github.io/pygal.js/2.0.x/pygal-tooltips.min.js"], "legend_at_bottom": false, "legend_at_bottom_columns": null, "legend_box_size": 12, "logarithmic": false, "margin": 20, "margin_bottom": null, "margin_left": null, "margin_right": null, "margin_top": null, "max_scale": 16, "min_scale": 4, "missing_value_fill_truncation": "x", "no_data_text": "No data", "no_prefix": false, "order_min": null, "pretty_print": false, "print_labels": false, "print_values": false, "print_values_position": "center", "print_zeroes": true, "range": null, "rounded_bars": null, "secondary_range": null, "show_dots": true, "show_legend": true, "show_minor_x_labels": true, "show_minor_y_labels": true, "show_only_major_dots": false, "show_x_guides": false, "show_x_labels": true, "show_y_guides": true, "show_y_labels": true, "spacing": 10, "stack_from_top": false, "strict": false, "stroke": true, "stroke_style": null, "style": {"background": "#f8f8f8", "ci_colors": [], "colors": ["#fe9592", "#534f4c", "#3ac2c0", "#a2a7a1", "#fd4b46", "#7b7571", "#73d5d4", "#c9ccc9", "#ffdfde", "#2e9b99"], "font_family": "Consolas, \"Liberation Mono\", Menlo, Courier, monospace", "foreground": "#333", "foreground_strong": "#666", "foreground_subtle": "rgba(0, 0 , 0, 0.5)", "guide_stroke_dasharray": "4,4", "label_font_family": "Consolas, \"Liberation Mono\", Menlo, Courier, monospace", "label_font_size": 10, "legend_font_family": "Consolas, \"Liberation Mono\", Menlo, Courier, monospace", "legend_font_size": 14, "major_guide_stroke_dasharray": "6,6", "major_label_font_family": "Consolas, \"Liberation Mono\", Menlo, Courier, monospace", "major_label_font_size": 10, "no_data_font_family": "Consolas, \"Liberation Mono\", Menlo, Courier, monospace", "no_data_font_size": 64, "opacity": ".5", "opacity_hover": ".9", "plot_background": "#ffffff", "stroke_opacity": ".8", "stroke_opacity_hover": ".9", "title_font_family": "Consolas, \"Liberation Mono\", Menlo, Courier, monospace", "title_font_size": 16, "tooltip_font_family": "Consolas, \"Liberation Mono\", Menlo, Courier, monospace", "tooltip_font_size": 14, "transition": "250ms ease-in", "value_background": "rgba(229, 229, 229, 1)", "value_colors": [], "value_font_family": "Consolas, \"Liberation Mono\", Menlo, Courier, monospace", "value_font_size": 16, "value_label_font_family": "Consolas, \"Liberation Mono\", Menlo, Courier, monospace", "value_label_font_size": 10}, "title": "Like update", "tooltip_border_radius": 0, "tooltip_fancy_mode": true, "truncate_label": null, "truncate_legend": null, "width": 800, "x_label_rotation": 0, "x_labels": ["25-Oct", "3-Nov", "6-Nov", "9-Nov", "16-Nov", "21-Nov", "22-Nov", "24-Nov", "25-Nov"], "x_labels_major": null, "x_labels_major_count": null, "x_labels_major_every": null, "x_title": null, "xrange": null, "y_label_rotation": 0, "y_labels": [0, 2000, 4000, 6000, 8000, 10000, 12000, 14000, 16000, 18000, 20000, 22000, 24000, 26000, 28000, 30000, 32000, 34000, 36000, 38000], "y_labels_major": null, "y_labels_major_count": null, "y_labels_major_every": null, "y_title": null, "zero": 0, "legends": ["LIKE"]}</script><script type="text/javascript" xlink:href="https://kozea.github.io/pygal.js/2.0.x/pygal-tooltips.min.js" /></defs><title>Like update</title><g class="graph stackedline-graph vertical"><rect class="background" height="600" width="800" x="0" y="0" /><g class="plot" transform="translate(115, 46)"><rect class="background" height="514" width="664.4" x="0" y="0" /><g class="axis y always_show"><g class="guides"><path class="axis major line" d="M0.000000 504.115385 h664.400000" /><text class="major" x="-5" y="507.61538461538464">0</text><title>0</title></g><g class="guides"><path class="guide line" d="M0.000000 478.103239 h664.400000" /><text class="" x="-5" y="481.60323886639674">2000</text><title>2000</title></g><g class="guides"><path class="guide line" d="M0.000000 452.091093 h664.400000" /><text class="" x="-5" y="455.5910931174089">4000</text><title>4000</title></g><g class="guides"><path class="guide line" d="M0.000000 426.078947 h664.400000" /><text class="" x="-5" y="429.57894736842104">6000</text><title>6000</title></g><g class="guides"><path class="guide line" d="M0.000000 400.066802 h664.400000" /><text class="" x="-5" y="403.5668016194332">8000</text><title>8000</title></g><g class="guides"><path class="major guide line" d="M0.000000 374.054656 h664.400000" /><text class="major" x="-5" y="377.55465587044534">10000</text><title>10000</title></g><g class="guides"><path class="guide line" d="M0.000000 348.042510 h664.400000" /><text class="" x="-5" y="351.5425101214575">12000</text><title>12000</title></g><g class="guides"><path class="guide line" d="M0.000000 322.030364 h664.400000" /><text class="" x="-5" y="325.53036437246965">14000</text><title>14000</title></g><g class="guides"><path class="guide line" d="M0.000000 296.018219 h664.400000" /><text class="" x="-5" y="299.51821862348174">16000</text><title>16000</title></g><g class="guides"><path class="guide line" d="M0.000000 270.006073 h664.400000" /><text class="" x="-5" y="273.50607287449395">18000</text><title>18000</title></g><g class="guides"><path class="major guide line" d="M0.000000 243.993927 h664.400000" /><text class="major" x="-5" y="247.49392712550605">20000</text><title>20000</title></g><g class="guides"><path class="guide line" d="M0.000000 217.981781 h664.400000" /><text class="" x="-5" y="221.4817813765182">22000</text><title>22000</title></g><g class="guides"><path class="guide line" d="M0.000000 191.969636 h664.400000" /><text class="" x="-5" y="195.46963562753035">24000</text><title>24000</title></g><g class="guides"><path class="guide line" d="M0.000000 165.957490 h664.400000" /><text class="" x="-5" y="169.4574898785425">26000</text><title>26000</title></g><g class="guides"><path class="guide line" d="M0.000000 139.945344 h664.400000" /><text class="" x="-5" y="143.44534412955466">28000</text><title>28000</title></g><g class="guides"><path class="major guide line" d="M0.000000 113.933198 h664.400000" /><text class="major" x="-5" y="117.43319838056681">30000</text><title>30000</title></g><g class="guides"><path class="guide line" d="M0.000000 87.921053 h664.400000" /><text class="" x="-5" y="91.42105263157896">32000</text><title>32000</title></g><g class="guides"><path class="guide line" d="M0.000000 61.908907 h664.400000" /><text class="" x="-5" y="65.40890688259111">34000</text><title>34000</title></g><g class="guides"><path class="guide line" d="M0.000000 35.896761 h664.400000" /><text class="" x="-5" y="39.39676113360326">36000</text><title>36000</title></g><g class="guides"><path class="guide line" d="M0.000000 9.884615 h664.400000" /><text class="" x="-5" y="13.384615384615358">38000</text><title>38000</title></g></g><g class="axis x"><g class="guides"><path class="line" d="M12.776923 0.000000 v514.000000" /><text class="" x="12.776923076923076" y="529.0">25-Oct</text></g><g class="guides"><path class="guide line" d="M92.632692 0.000000 v514.000000" /><text class="" x="92.6326923076923" y="529.0">3-Nov</text></g><g class="guides"><path class="guide line" d="M172.488462 0.000000 v514.000000" /><text class="" x="172.48846153846154" y="529.0">6-Nov</text></g><g class="guides"><path class="guide line" d="M252.344231 0.000000 v514.000000" /><text class="" x="252.34423076923076" y="529.0">9-Nov</text></g><g class="guides"><path class="guide line" d="M332.200000 0.000000 v514.000000" /><text class="" x="332.2" y="529.0">16-Nov</text></g><g class="guides"><path class="guide line" d="M412.055769 0.000000 v514.000000" /><text class="" x="412.0557692307692" y="529.0">21-Nov</text></g><g class="guides"><path class="guide line" d="M491.911538 0.000000 v514.000000" /><text class="" x="491.91153846153844" y="529.0">22-Nov</text></g><g class="guides"><path class="guide line" d="M571.767308 0.000000 v514.000000" /><text class="" x="571.7673076923077" y="529.0">24-Nov</text></g><g class="guides"><path class="guide line" d="M651.623077 0.000000 v514.000000" /><text class="" x="651.6230769230768" y="529.0">25-Nov</text></g></g><g class="series serie-0 color-0"><path class="line reactive" d="M12.776923 504.115385 L12.776923 178.963563 13.096346 178.108495 13.415769 177.253454 13.735192 176.398467 14.054615 175.543562 14.374038 174.688765 14.693462 173.834104 15.012885 172.979606 15.332308 172.125298 15.651731 171.271207 15.971154 170.417361 16.290577 169.563786 16.610000 168.710510 16.929423 167.857559 17.248846 167.004962 17.568269 166.152744 17.887692 165.300934 18.207115 164.449558 18.526538 163.598644 18.845962 162.748218 19.165385 161.898308 19.484808 161.048942 19.804231 160.200145 20.123654 159.351946 20.443077 158.504371 20.762500 157.657447 21.081923 156.811203 21.401346 155.965664 21.720769 155.120858 22.040192 154.276813 22.359615 153.433555 22.679038 152.591111 22.998462 151.749509 23.317885 150.908775 23.637308 150.068938 23.956731 149.230024 24.276154 148.392060 24.595577 147.555073 24.915000 146.719091 25.234423 145.884140 25.553846 145.050249 25.873269 144.217443 26.192692 143.385750 26.512115 142.555198 26.831538 141.725813 27.150962 140.897623 27.470385 140.070654 27.789808 139.244935 28.109231 138.420491 28.428654 137.597350 28.748077 136.775540 29.067500 135.955087 29.386923 135.136019 29.706346 134.318363 30.025769 133.502145 30.345192 132.687394 30.664615 131.874136 30.984038 131.062398 31.303462 130.252208 31.622885 129.443592 31.942308 128.636578 32.261731 127.831193 32.581154 127.027464 32.900577 126.225419 33.220000 125.425084 33.539423 124.626486 33.858846 123.829653 34.178269 123.034612 34.497692 122.241390 34.817115 121.450015 35.136538 120.660512 35.455962 119.872910 35.775385 119.087236 36.094808 118.303516 36.414231 117.521778 36.733654 116.742049 37.053077 115.964357 37.372500 115.188727 37.691923 114.415189 38.011346 113.643768 38.330769 112.874491 38.650192 112.107387 38.969615 111.342482 39.289038 110.579803 39.608462 109.819377 39.927885 109.061232 40.247308 108.305395 40.566731 107.551892 40.886154 106.800752 41.205577 106.052000 41.525000 105.305665 41.844423 104.561774 42.163846 103.820352 42.483269 103.081429 42.802692 102.345031 43.122115 101.611184 43.441538 100.879917 43.760962 100.151256 44.080385 99.425229 44.399808 98.701862 44.719231 97.981183 45.038654 97.263219 45.358077 96.547997 45.677500 95.835544 45.996923 95.125888 46.316346 94.419055 46.635769 93.715073 46.955192 93.013968 47.274615 92.315769 47.594038 91.620502 47.913462 90.928194 48.232885 90.238872 48.552308 89.552565 48.871731 88.869297 49.191154 88.189098 49.510577 87.511994 49.830000 86.838011 50.149423 86.167179 50.468846 85.499522 50.788269 84.835070 51.107692 84.173848 51.427115 83.515884 51.746538 82.861205 52.065962 82.209838 52.385385 81.561810 52.704808 80.917150 53.024231 80.275882 53.343654 79.638036 53.663077 79.003637 53.982500 78.372714 54.301923 77.745293 54.621346 77.121401 54.940769 76.501066 55.260192 75.884315 55.579615 75.271174 55.899038 74.661672 56.218462 74.055835 56.537885 73.453690 56.857308 72.855264 57.176731 72.260585 57.496154 71.669680 57.815577 71.082575 58.135000 70.499299 58.454423 69.919878 58.773846 69.344339 59.093269 68.772710 59.412692 68.205018 59.732115 67.641289 60.051538 67.081551 60.370962 66.525831 60.690385 65.974157 61.009808 65.426555 61.329231 64.883053 61.648654 64.343677 61.968077 63.808455 62.287500 63.277414 62.606923 62.750581 62.926346 62.227983 63.245769 61.709648 63.565192 61.195603 63.884615 60.685874 64.204038 60.180489 64.523462 59.679476 64.842885 59.182860 65.162308 58.690670 65.481731 58.202932 65.801154 57.719674 66.120577 57.240922 66.440000 56.766705 66.759423 56.297049 67.078846 55.831981 67.398269 55.371528 67.717692 54.915718 68.037115 54.464577 68.356538 54.018133 68.675962 53.576414 68.995385 53.139445 69.314808 52.707255 69.634231 52.279870 69.953654 51.857318 70.273077 51.439625 70.592500 51.026820 70.911923 50.618928 71.231346 50.215978 71.550769 49.817996 71.870192 49.425009 72.189615 49.037045 72.509038 48.654131 72.828462 48.276293 73.147885 47.903560 73.467308 47.535958 73.786731 47.173514 74.106154 46.816256 74.425577 46.464211 74.745000 46.117405 75.064423 45.775866 75.383846 45.439622 75.703269 45.108699 76.022692 44.783124 76.342115 44.462924 76.661538 44.148128 76.980962 43.838761 77.300385 43.534851 77.619808 43.236426 77.939231 42.943512 78.258654 42.656136 78.578077 42.374326 78.897500 42.098108 79.216923 41.827511 79.536346 41.562560 79.855769 41.303284 80.175192 41.049709 80.494615 40.801863 80.814038 40.559772 81.133462 40.323464 81.452885 40.092967 81.772308 39.868306 82.091731 39.649509 82.411154 39.436604 82.730577 39.229617 83.050000 39.028576 83.369423 38.833508 83.688846 38.644440 84.008269 38.461399 84.327692 38.284413 84.647115 38.113508 84.966538 37.948711 85.285962 37.790050 85.605385 37.637552 85.924808 37.491244 86.244231 37.351154 86.563654 37.217307 86.883077 37.089733 87.202500 36.968456 87.521923 36.853506 87.841346 36.744909 88.160769 36.642691 88.480192 36.546881 88.799615 36.457505 89.119038 36.374591 89.438462 36.298166 89.757885 36.228256 90.077308 36.164889 90.396731 36.108093 90.716154 36.057893 91.035577 36.014319 91.355000 35.977395 91.674423 35.947151 91.993846 35.923612 92.313269 35.906807 92.632692 35.896761 92.952115 35.893491 93.271538 35.896962 93.590962 35.907129 93.910385 35.923946 94.229808 35.947366 94.549231 35.977345 94.868654 36.013836 95.188077 36.056793 95.507500 36.106171 95.826923 36.161924 96.146346 36.224005 96.465769 36.292369 96.785192 36.366971 97.104615 36.447764 97.424038 36.534702 97.743462 36.627740 98.062885 36.726831 98.382308 36.831931 98.701731 36.942993 99.021154 37.059970 99.340577 37.182819 99.660000 37.311491 99.979423 37.445943 100.298846 37.586127 100.618269 37.731998 100.937692 37.883510 101.257115 38.040617 101.576538 38.203274 101.895962 38.371435 102.215385 38.545053 102.534808 38.724083 102.854231 38.908479 103.173654 39.098195 103.493077 39.293186 103.812500 39.493405 104.131923 39.698807 104.451346 39.909345 104.770769 40.124975 105.090192 40.345649 105.409615 40.571323 105.729038 40.801950 106.048462 41.037485 106.367885 41.277881 106.687308 41.523093 107.006731 41.773075 107.326154 42.027782 107.645577 42.287166 107.965000 42.551183 108.284423 42.819787 108.603846 43.092931 108.923269 43.370571 109.242692 43.652659 109.562115 43.939150 109.881538 44.229999 110.200962 44.525160 110.520385 44.824586 110.839808 45.128232 111.159231 45.436051 111.478654 45.747999 111.798077 46.064029 112.117500 46.384096 112.436923 46.708153 112.756346 47.036155 113.075769 47.368056 113.395192 47.703810 113.714615 48.043371 114.034038 48.386693 114.353462 48.733730 114.672885 49.084438 114.992308 49.438769 115.311731 49.796678 115.631154 50.158119 115.950577 50.523046 116.270000 50.891414 116.589423 51.263176 116.908846 51.638287 117.228269 52.016701 117.547692 52.398372 117.867115 52.783254 118.186538 53.171301 118.505962 53.562468 118.825385 53.956708 119.144808 54.353976 119.464231 54.754226 119.783654 55.157412 120.103077 55.563488 120.422500 55.972408 120.741923 56.384127 121.061346 56.798599 121.380769 57.215777 121.700192 57.635616 122.019615 58.058071 122.339038 58.483094 122.658462 58.910642 122.977885 59.340666 123.297308 59.773123 123.616731 60.207965 123.936154 60.645147 124.255577 61.084624 124.575000 61.526348 124.894423 61.970275 125.213846 62.416359 125.533269 62.864554 125.852692 63.314813 126.172115 63.767092 126.491538 64.221344 126.810962 64.677523 127.130385 65.135584 127.449808 65.595480 127.769231 66.057166 128.088654 66.520596 128.408077 66.985725 128.727500 67.452505 129.046923 67.920892 129.366346 68.390840 129.685769 68.862302 130.005192 69.335234 130.324615 69.809588 130.644038 70.285319 130.963462 70.762382 131.282885 71.240730 131.602308 71.720318 131.921731 72.201100 132.241154 72.683030 132.560577 73.166062 132.880000 73.650150 133.199423 74.135248 133.518846 74.621311 133.838269 75.108293 134.157692 75.596147 134.477115 76.084829 134.796538 76.574292 135.115962 77.064490 135.435385 77.555377 135.754808 78.046908 136.074231 78.539037 136.393654 79.031718 136.713077 79.524905 137.032500 80.018552 137.351923 80.512613 137.671346 81.007043 137.990769 81.501796 138.310192 81.996825 138.629615 82.492086 138.949038 82.987531 139.268462 83.483116 139.587885 83.978794 139.907308 84.474520 140.226731 84.970248 140.546154 85.465931 140.865577 85.961525 141.185000 86.456982 141.504423 86.952258 141.823846 87.447307 142.143269 87.942082 142.462692 88.436538 142.782115 88.930629 143.101538 89.424309 143.420962 89.917532 143.740385 90.410253 144.059808 90.902425 144.379231 91.394003 144.698654 91.884940 145.018077 92.375192 145.337500 92.864712 145.656923 93.353454 145.976346 93.841373 146.295769 94.328422 146.615192 94.814556 146.934615 95.299729 147.254038 95.783895 147.573462 96.267008 147.892885 96.749022 148.212308 97.229893 148.531731 97.709572 148.851154 98.188016 149.170577 98.665177 149.490000 99.141011 149.809423 99.615471 150.128846 100.088511 150.448269 100.560086 150.767692 101.030150 151.087115 101.498656 151.406538 101.965560 151.725962 102.430814 152.045385 102.894374 152.364808 103.356194 152.684231 103.816227 153.003654 104.274428 153.323077 104.730751 153.642500 105.185150 153.961923 105.637579 154.281346 106.087993 154.600769 106.536345 154.920192 106.982589 155.239615 107.426681 155.559038 107.868574 155.878462 108.308222 156.197885 108.745579 156.517308 109.180599 156.836731 109.613237 157.156154 110.043447 157.475577 110.471183 157.795000 110.896399 158.114423 111.319049 158.433846 111.739088 158.753269 112.156469 159.072692 112.571146 159.392115 112.983075 159.711538 113.392208 160.030962 113.798500 160.350385 114.201906 160.669808 114.602379 160.989231 114.999874 161.308654 115.394345 161.628077 115.785745 161.947500 116.174029 162.266923 116.559152 162.586346 116.941067 162.905769 117.319728 163.225192 117.695090 163.544615 118.067107 163.864038 118.435733 164.183462 118.800921 164.502885 119.162627 164.822308 119.520805 165.141731 119.875408 165.461154 120.226390 165.780577 120.573707 166.100000 120.917311 166.419423 121.257158 166.738846 121.593201 167.058269 121.925394 167.377692 122.253692 167.697115 122.578049 168.016538 122.898418 168.335962 123.214755 168.655385 123.527013 168.974808 123.835146 169.294231 124.139108 169.613654 124.438855 169.933077 124.734339 170.252500 125.025515 170.571923 125.312337 170.891346 125.594760 171.210769 125.872737 171.530192 126.146222 171.849615 126.415170 172.169038 126.679535 172.488462 126.939271 172.807885 127.194346 173.127308 127.444783 173.446731 127.690617 173.766154 127.931886 174.085577 128.168625 174.405000 128.400872 174.724423 128.628662 175.043846 128.852031 175.363269 129.071017 175.682692 129.285656 176.002115 129.495984 176.321538 129.702037 176.640962 129.903851 176.960385 130.101464 177.279808 130.294911 177.599231 130.484230 177.918654 130.669455 178.238077 130.850624 178.557500 131.027773 178.876923 131.200939 179.196346 131.370157 179.515769 131.535465 179.835192 131.696898 180.154615 131.854493 180.474038 132.008286 180.793462 132.158314 181.112885 132.304614 181.432308 132.447220 181.751731 132.586171 182.071154 132.721501 182.390577 132.853249 182.710000 132.981449 183.029423 133.106139 183.348846 133.227354 183.668269 133.345132 183.987692 133.459508 184.307115 133.570519 184.626538 133.678201 184.945962 133.782591 185.265385 133.883725 185.584808 133.981639 185.904231 134.076370 186.223654 134.167955 186.543077 134.256428 186.862500 134.341828 187.181923 134.424190 187.501346 134.503551 187.820769 134.579947 188.140192 134.653415 188.459615 134.723990 188.779038 134.791710 189.098462 134.856610 189.417885 134.918727 189.737308 134.978097 190.056731 135.034758 190.376154 135.088744 190.695577 135.140093 191.015000 135.188841 191.334423 135.235024 191.653846 135.278679 191.973269 135.319842 192.292692 135.358549 192.612115 135.394837 192.931538 135.428742 193.250962 135.460301 193.570385 135.489550 193.889808 135.516525 194.209231 135.541263 194.528654 135.563800 194.848077 135.584172 195.167500 135.602417 195.486923 135.618569 195.806346 135.632666 196.125769 135.644745 196.445192 135.654840 196.764615 135.662989 197.084038 135.669229 197.403462 135.673595 197.722885 135.676124 198.042308 135.676852 198.361731 135.675816 198.681154 135.673052 199.000577 135.668596 199.320000 135.662485 199.639423 135.654756 199.958846 135.645444 200.278269 135.634586 200.597692 135.622218 200.917115 135.608377 201.236538 135.593099 201.555962 135.576420 201.875385 135.558378 202.194808 135.539008 202.514231 135.518346 202.833654 135.496429 203.153077 135.473294 203.472500 135.448976 203.791923 135.423513 204.111346 135.396940 204.430769 135.369294 204.750192 135.340612 205.069615 135.310929 205.389038 135.280282 205.708462 135.248708 206.027885 135.216242 206.347308 135.182922 206.666731 135.148783 206.986154 135.113862 207.305577 135.078195 207.625000 135.041820 207.944423 135.004771 208.263846 134.967086 208.583269 134.928801 208.902692 134.889952 209.222115 134.850575 209.541538 134.810708 209.860962 134.770386 210.180385 134.729646 210.499808 134.688524 210.819231 134.647056 211.138654 134.605280 211.458077 134.563231 211.777500 134.520945 212.096923 134.478460 212.416346 134.435811 212.735769 134.393034 213.055192 134.350167 213.374615 134.307246 213.694038 134.264307 214.013462 134.221385 214.332885 134.178519 214.652308 134.135744 214.971731 134.093096 215.291154 134.050612 215.610577 134.008329 215.930000 133.966282 216.249423 133.924508 216.568846 133.883044 216.888269 133.841925 217.207692 133.801188 217.527115 133.760870 217.846538 133.721007 218.165962 133.681636 218.485385 133.642792 218.804808 133.604512 219.124231 133.566832 219.443654 133.529790 219.763077 133.493420 220.082500 133.457760 220.401923 133.422846 220.721346 133.388715 221.040769 133.355402 221.360192 133.322945 221.679615 133.291379 221.999038 133.260740 222.318462 133.231066 222.637885 133.202393 222.957308 133.174757 223.276731 133.148194 223.596154 133.122741 223.915577 133.098434 224.235000 133.075310 224.554423 133.053404 224.873846 133.032754 225.193269 133.013396 225.512692 132.995366 225.832115 132.978700 226.151538 132.963435 226.470962 132.949607 226.790385 132.937253 227.109808 132.926409 227.429231 132.917111 227.748654 132.909396 228.068077 132.903300 228.387500 132.898860 228.706923 132.896112 229.026346 132.895091 229.345769 132.895836 229.665192 132.898381 229.984615 132.902764 230.304038 132.909021 230.623462 132.917188 230.942885 132.927301 231.262308 132.939398 231.581731 132.953514 231.901154 132.969685 232.220577 132.987949 232.540000 133.008341 232.859423 133.030898 233.178846 133.055656 233.498269 133.082652 233.817692 133.111921 234.137115 133.143501 234.456538 133.177428 234.775962 133.213738 235.095385 133.252468 235.414808 133.293653 235.734231 133.337331 236.053654 133.383537 236.373077 133.432309 236.692500 133.483682 237.011923 133.537692 237.331346 133.594377 237.650769 133.653773 237.970192 133.715915 238.289615 133.780841 238.609038 133.848586 238.928462 133.919188 239.247885 133.992682 239.567308 134.069105 239.886731 134.148493 240.206154 134.230883 240.525577 134.316311 240.845000 134.404813 241.164423 134.496426 241.483846 134.591186 241.803269 134.689129 242.122692 134.790293 242.442115 134.894713 242.761538 135.002425 243.080962 135.113467 243.400385 135.227874 243.719808 135.345682 244.039231 135.466929 244.358654 135.591651 244.678077 135.719884 244.997500 135.851663 245.316923 135.987027 245.636346 136.126011 245.955769 136.268651 246.275192 136.414984 246.594615 136.565046 246.914038 136.718874 247.233462 136.876504 247.552885 137.037973 247.872308 137.203316 248.191731 137.372570 248.511154 137.545772 248.830577 137.722957 249.150000 137.904163 249.469423 138.089426 249.788846 138.278782 250.108269 138.472267 250.427692 138.669918 250.747115 138.871771 251.066538 139.077863 251.385962 139.288230 251.705385 139.502908 252.024808 139.721934 252.344231 139.945344 252.663654 140.173162 252.983077 140.405360 253.302500 140.641900 253.621923 140.882741 253.941346 141.127843 254.260769 141.377167 254.580192 141.630673 254.899615 141.888322 255.219038 142.150073 255.538462 142.415887 255.857885 142.685723 256.177308 142.959543 256.496731 143.237307 256.816154 143.518975 257.135577 143.804506 257.455000 144.093862 257.774423 144.387002 258.093846 144.683888 258.413269 144.984478 258.732692 145.288734 259.052115 145.596615 259.371538 145.908082 259.690962 146.223096 260.010385 146.541615 260.329808 146.863602 260.649231 147.189015 260.968654 147.517815 261.288077 147.849963 261.607500 148.185418 261.926923 148.524141 262.246346 148.866093 262.565769 149.211233 262.885192 149.559521 263.204615 149.910918 263.524038 150.265385 263.843462 150.622881 264.162885 150.983367 264.482308 151.346802 264.801731 151.713148 265.121154 152.082365 265.440577 152.454412 265.760000 152.829250 266.079423 153.206839 266.398846 153.587140 266.718269 153.970112 267.037692 154.355716 267.357115 154.743913 267.676538 155.134662 267.995962 155.527924 268.315385 155.923659 268.634808 156.321827 268.954231 156.722389 269.273654 157.125304 269.593077 157.530534 269.912500 157.938038 270.231923 158.347776 270.551346 158.759709 270.870769 159.173797 271.190192 159.590001 271.509615 160.008280 271.829038 160.428595 272.148462 160.850906 272.467885 161.275173 272.787308 161.701357 273.106731 162.129418 273.426154 162.559316 273.745577 162.991011 274.065000 163.424464 274.384423 163.859634 274.703846 164.296483 275.023269 164.734970 275.342692 165.175056 275.662115 165.616701 275.981538 166.059864 276.300962 166.504508 276.620385 166.950590 276.939808 167.398073 277.259231 167.846916 277.578654 168.297079 277.898077 168.748523 278.217500 169.201208 278.536923 169.655094 278.856346 170.110142 279.175769 170.566311 279.495192 171.023562 279.814615 171.481856 280.134038 171.941152 280.453462 172.401410 280.772885 172.862592 281.092308 173.324657 281.411731 173.787565 281.731154 174.251277 282.050577 174.715753 282.370000 175.180953 282.689423 175.646838 283.008846 176.113368 283.328269 176.580502 283.647692 177.048202 283.967115 177.516427 284.286538 177.985138 284.605962 178.454295 284.925385 178.923859 285.244808 179.393789 285.564231 179.864046 285.883654 180.334590 286.203077 180.805381 286.522500 181.276379 286.841923 181.747546 287.161346 182.218841 287.480769 182.690224 287.800192 183.161655 288.119615 183.633096 288.439038 184.104505 288.758462 184.575844 289.077885 185.047073 289.397308 185.518151 289.716731 185.989039 290.036154 186.459698 290.355577 186.930088 290.675000 187.400168 290.994423 187.869900 291.313846 188.339243 291.633269 188.808157 291.952692 189.276604 292.272115 189.744542 292.591538 190.211934 292.910962 190.678737 293.230385 191.144914 293.549808 191.610424 293.869231 192.075227 294.188654 192.539284 294.508077 193.002555 294.827500 193.465001 295.146923 193.926580 295.466346 194.387255 295.785769 194.846984 296.105192 195.305729 296.424615 195.763449 296.744038 196.220105 297.063462 196.675656 297.382885 197.130065 297.702308 197.583289 298.021731 198.035291 298.341154 198.486029 298.660577 198.935465 298.980000 199.383558 299.299423 199.830269 299.618846 200.275558 299.938269 200.719385 300.257692 201.161711 300.577115 201.602496 300.896538 202.041700 301.215962 202.479283 301.535385 202.915205 301.854808 203.349428 302.174231 203.781910 302.493654 204.212613 302.813077 204.641497 303.132500 205.068521 303.451923 205.493647 303.771346 205.916834 304.090769 206.338042 304.410192 206.757232 304.729615 207.174365 305.049038 207.589400 305.368462 208.002297 305.687885 208.413018 306.007308 208.821521 306.326731 209.227768 306.646154 209.631719 306.965577 210.033333 307.285000 210.432572 307.604423 210.829395 307.923846 211.223763 308.243269 211.615636 308.562692 212.004973 308.882115 212.391737 309.201538 212.775886 309.520962 213.157381 309.840385 213.536182 310.159808 213.912250 310.479231 214.285545 310.798654 214.656026 311.118077 215.023655 311.437500 215.388391 311.756923 215.750195 312.076346 216.109027 312.395769 216.464847 312.715192 216.817616 313.034615 217.167293 313.354038 217.513840 313.673462 217.857216 313.992885 218.197381 314.312308 218.534296 314.631731 218.867921 314.951154 219.198217 315.270577 219.525143 315.590000 219.848660 315.909423 220.168727 316.228846 220.485307 316.548269 220.798358 316.867692 221.107840 317.187115 221.413715 317.506538 221.715942 317.825962 222.014482 318.145385 222.309294 318.464808 222.600340 318.784231 222.887579 319.103654 223.170972 319.423077 223.450478 319.742500 223.726059 320.061923 223.997674 320.381346 224.265284 320.700769 224.528848 321.020192 224.788328 321.339615 225.043683 321.659038 225.294874 321.978462 225.541861 322.297885 225.784604 322.617308 226.023063 322.936731 226.257200 323.256154 226.486973 323.575577 226.712343 323.895000 226.933271 324.214423 227.149716 324.533846 227.361639 324.853269 227.569001 325.172692 227.771761 325.492115 227.969880 325.811538 228.163318 326.130962 228.352035 326.450385 228.535991 326.769808 228.715147 327.089231 228.889464 327.408654 229.058900 327.728077 229.223417 328.047500 229.382975 328.366923 229.537534 328.686346 229.687054 329.005769 229.831496 329.325192 229.970820 329.644615 230.104985 329.964038 230.233953 330.283462 230.357683 330.602885 230.476137 330.922308 230.589273 331.241731 230.697053 331.561154 230.799436 331.880577 230.896383 332.200000 230.987854 332.519423 231.073824 332.838846 231.154320 333.158269 231.229386 333.477692 231.299064 333.797115 231.363398 334.116538 231.422429 334.435962 231.476201 334.755385 231.524756 335.074808 231.568137 335.394231 231.606386 335.713654 231.639547 336.033077 231.667662 336.352500 231.690773 336.671923 231.708923 336.991346 231.722156 337.310769 231.730513 337.630192 231.734037 337.949615 231.732772 338.269038 231.726759 338.588462 231.716042 338.907885 231.700662 339.227308 231.680664 339.546731 231.656089 339.866154 231.626980 340.185577 231.593380 340.505000 231.555332 340.824423 231.512877 341.143846 231.466060 341.463269 231.414923 341.782692 231.359507 342.102115 231.299857 342.421538 231.236014 342.740962 231.168022 343.060385 231.095922 343.379808 231.019759 343.699231 230.939574 344.018654 230.855410 344.338077 230.767309 344.657500 230.675316 344.976923 230.579471 345.296346 230.479818 345.615769 230.376400 345.935192 230.269259 346.254615 230.158438 346.574038 230.043980 346.893462 229.925927 347.212885 229.804321 347.532308 229.679207 347.851731 229.550626 348.171154 229.418621 348.490577 229.283234 348.810000 229.144510 349.129423 229.002489 349.448846 228.857215 349.768269 228.708730 350.087692 228.557078 350.407115 228.402300 350.726538 228.244441 351.045962 228.083541 351.365385 227.919644 351.684808 227.752793 352.004231 227.583030 352.323654 227.410398 352.643077 227.234940 352.962500 227.056698 353.281923 226.875715 353.601346 226.692034 353.920769 226.505698 354.240192 226.316748 354.559615 226.125228 354.879038 225.931181 355.198462 225.734649 355.517885 225.535675 355.837308 225.334301 356.156731 225.130571 356.476154 224.924527 356.795577 224.716211 357.115000 224.505666 357.434423 224.292936 357.753846 224.078062 358.073269 223.861087 358.392692 223.642055 358.712115 223.421007 359.031538 223.197987 359.350962 222.973037 359.670385 222.746199 359.989808 222.517517 360.309231 222.287034 360.628654 222.054791 360.948077 221.820831 361.267500 221.585198 361.586923 221.347934 361.906346 221.109082 362.225769 220.868684 362.545192 220.626782 362.864615 220.383421 363.184038 220.138642 363.503462 219.892488 363.822885 219.645001 364.142308 219.396225 364.461731 219.146203 364.781154 218.894976 365.100577 218.642587 365.420000 218.389080 365.739423 218.134496 366.058846 217.878879 366.378269 217.622272 366.697692 217.364716 367.017115 217.106255 367.336538 216.846931 367.655962 216.586787 367.975385 216.325866 368.294808 216.064210 368.614231 215.801863 368.933654 215.538866 369.253077 215.275262 369.572500 215.011095 369.891923 214.746406 370.211346 214.481239 370.530769 214.215636 370.850192 213.949640 371.169615 213.683294 371.489038 213.416639 371.808462 213.149720 372.127885 212.882578 372.447308 212.615257 372.766731 212.347799 373.086154 212.080246 373.405577 211.812642 373.725000 211.545028 374.044423 211.277449 374.363846 211.009946 374.683269 210.742562 375.002692 210.475340 375.322115 210.208322 375.641538 209.941552 375.960962 209.675071 376.280385 209.408923 376.599808 209.143150 376.919231 208.877795 377.238654 208.612901 377.558077 208.348510 377.877500 208.084665 378.196923 207.821409 378.516346 207.558784 378.835769 207.296833 379.155192 207.035599 379.474615 206.775125 379.794038 206.515452 380.113462 206.256625 380.432885 205.998685 380.752308 205.741675 381.071731 205.485638 381.391154 205.230616 381.710577 204.976653 382.030000 204.723790 382.349423 204.472072 382.668846 204.221539 382.988269 203.972236 383.307692 203.724204 383.627115 203.477487 383.946538 203.232127 384.265962 202.988166 384.585385 202.745648 384.904808 202.504615 385.224231 202.265110 385.543654 202.027175 385.863077 201.790854 386.182500 201.556188 386.501923 201.323221 386.821346 201.091996 387.140769 200.862554 387.460192 200.634939 387.779615 200.409193 388.099038 200.185359 388.418462 199.963480 388.737885 199.743598 389.057308 199.525756 389.376731 199.309997 389.696154 199.096364 390.015577 198.884899 390.335000 198.675644 390.654423 198.468643 390.973846 198.263938 391.293269 198.061572 391.612692 197.861588 391.932115 197.664028 392.251538 197.468934 392.570962 197.276351 392.890385 197.086320 393.209808 196.898883 393.529231 196.714085 393.848654 196.531967 394.168077 196.352571 394.487500 196.175942 394.806923 196.002121 395.126346 195.831151 395.445769 195.663076 395.765192 195.497936 396.084615 195.335776 396.404038 195.176637 396.723462 195.020564 397.042885 194.867597 397.362308 194.717781 397.681731 194.571157 398.001154 194.427768 398.320577 194.287657 398.640000 194.150867 398.959423 194.017441 399.278846 193.887420 399.598269 193.760849 399.917692 193.637769 400.237115 193.518222 400.556538 193.402253 400.875962 193.289903 401.195385 193.181216 401.514808 193.076233 401.834231 192.974998 402.153654 192.877553 402.473077 192.783941 402.792500 192.694205 403.111923 192.608387 403.431346 192.526530 403.750769 192.448677 404.070192 192.374870 404.389615 192.305152 404.709038 192.239566 405.028462 192.178154 405.347885 192.120960 405.667308 192.068025 405.986731 192.019393 406.306154 191.975106 406.625577 191.935207 406.945000 191.899739 407.264423 191.868744 407.583846 191.842265 407.903269 191.820344 408.222692 191.803025 408.542115 191.790350 408.861538 191.782361 409.180962 191.779102 409.500385 191.780615 409.819808 191.786943 410.139231 191.798128 410.458654 191.814213 410.778077 191.835241 411.097500 191.861255 411.416923 191.892297 411.736346 191.928409 412.055769 191.969636 412.375192 192.016006 412.694615 192.067501 413.014038 192.124091 413.333462 192.185743 413.652885 192.252427 413.972308 192.324112 414.291731 192.400766 414.611154 192.482359 414.930577 192.568859 415.250000 192.660236 415.569423 192.756457 415.888846 192.857492 416.208269 192.963310 416.527692 193.073880 416.847115 193.189171 417.166538 193.309151 417.485962 193.433789 417.805385 193.563055 418.124808 193.696916 418.444231 193.835343 418.763654 193.978303 419.083077 194.125767 419.402500 194.277702 419.721923 194.434077 420.041346 194.594862 420.360769 194.760025 420.680192 194.929535 420.999615 195.103362 421.319038 195.281473 421.638462 195.463838 421.957885 195.650426 422.277308 195.841205 422.596731 196.036145 422.916154 196.235214 423.235577 196.438381 423.555000 196.645615 423.874423 196.856886 424.193846 197.072161 424.513269 197.291410 424.832692 197.514601 425.152115 197.741704 425.471538 197.972688 425.790962 198.207520 426.110385 198.446171 426.429808 198.688609 426.749231 198.934802 427.068654 199.184721 427.388077 199.438333 427.707500 199.695608 428.026923 199.956514 428.346346 200.221020 428.665769 200.489095 428.985192 200.760709 429.304615 201.035830 429.624038 201.314426 429.943462 201.596467 430.262885 201.881921 430.582308 202.170759 430.901731 202.462947 431.221154 202.758456 431.540577 203.057253 431.860000 203.359309 432.179423 203.664592 432.498846 203.973070 432.818269 204.284713 433.137692 204.599489 433.457115 204.917368 433.776538 205.238318 434.095962 205.562308 434.415385 205.889308 434.734808 206.219285 435.054231 206.552209 435.373654 206.888048 435.693077 207.226773 436.012500 207.568350 436.331923 207.912750 436.651346 208.259941 436.970769 208.609892 437.290192 208.962572 437.609615 209.317950 437.929038 209.675995 438.248462 210.036675 438.567885 210.399960 438.887308 210.765818 439.206731 211.134218 439.526154 211.505130 439.845577 211.878521 440.165000 212.254362 440.484423 212.632620 440.803846 213.013264 441.123269 213.396265 441.442692 213.781589 441.762115 214.169207 442.081538 214.559087 442.400962 214.951198 442.720385 215.345509 443.039808 215.741989 443.359231 216.140607 443.678654 216.541331 443.998077 216.944130 444.317500 217.348974 444.636923 217.755831 444.956346 218.164671 445.275769 218.575461 445.595192 218.988171 445.914615 219.402769 446.234038 219.819226 446.553462 220.237508 446.872885 220.657586 447.192308 221.079429 447.511731 221.503004 447.831154 221.928282 448.150577 222.355230 448.470000 222.783819 448.789423 223.214015 449.108846 223.645790 449.428269 224.079111 449.747692 224.513947 450.067115 224.950267 450.386538 225.388040 450.705962 225.827236 451.025385 226.267822 451.344808 226.709768 451.664231 227.153042 451.983654 227.597614 452.303077 228.043452 452.622500 228.490525 452.941923 228.938803 453.261346 229.388253 453.580769 229.838846 453.900192 230.290549 454.219615 230.743331 454.539038 231.197163 454.858462 231.652011 455.177885 232.107846 455.497308 232.564636 455.816731 233.022350 456.136154 233.480957 456.455577 233.940426 456.775000 234.400725 457.094423 234.861824 457.413846 235.323691 457.733269 235.786296 458.052692 236.249607 458.372115 236.713593 458.691538 237.178223 459.010962 237.643465 459.330385 238.109290 459.649808 238.575665 459.969231 239.042559 460.288654 239.509942 460.608077 239.977782 460.927500 240.446048 461.246923 240.914710 461.566346 241.383735 461.885769 241.853092 462.205192 242.322752 462.524615 242.792682 462.844038 243.262851 463.163462 243.733229 463.482885 244.203784 463.802308 244.674485 464.121731 245.145300 464.441154 245.616200 464.760577 246.087152 465.080000 246.558126 465.399423 247.029090 465.718846 247.500014 466.038269 247.970866 466.357692 248.441615 466.677115 248.912229 466.996538 249.382679 467.315962 249.852932 467.635385 250.322959 467.954808 250.792726 468.274231 251.262204 468.593654 251.731361 468.913077 252.200166 469.232500 252.668589 469.551923 253.136597 469.871346 253.604160 470.190769 254.071246 470.510192 254.537825 470.829615 255.003866 471.149038 255.469337 471.468462 255.934207 471.787885 256.398445 472.107308 256.862020 472.426731 257.324901 472.746154 257.787056 473.065577 258.248455 473.385000 258.709067 473.704423 259.168860 474.023846 259.627803 474.343269 260.085865 474.662692 260.543015 474.982115 260.999222 475.301538 261.454455 475.620962 261.908682 475.940385 262.361873 476.259808 262.813997 476.579231 263.265021 476.898654 263.714916 477.218077 264.163650 477.537500 264.611191 477.856923 265.057510 478.176346 265.502574 478.495769 265.946352 478.815192 266.388814 479.134615 266.829929 479.454038 267.269664 479.773462 267.707990 480.092885 268.144875 480.412308 268.580287 480.731731 269.014196 481.051154 269.446571 481.370577 269.877380 481.690000 270.306592 482.009423 270.734177 482.328846 271.160103 482.648269 271.584339 482.967692 272.006854 483.287115 272.427616 483.606538 272.846595 483.925962 273.263760 484.245385 273.679079 484.564808 274.092522 484.884231 274.504056 485.203654 274.913652 485.523077 275.321277 485.842500 275.726901 486.161923 276.130493 486.481346 276.532022 486.800769 276.931456 487.120192 277.328764 487.439615 277.723915 487.759038 278.116879 488.078462 278.507624 488.397885 278.896118 488.717308 279.282331 489.036731 279.666232 489.356154 280.047789 489.675577 280.426972 489.995000 280.803748 490.314423 281.178088 490.633846 281.549960 490.953269 281.919333 491.272692 282.286176 491.592115 282.650457 491.911538 283.012146 492.230962 283.371218 492.550385 283.727679 492.869808 284.081540 493.189231 284.432812 493.508654 284.781509 493.828077 285.127642 494.147500 285.471222 494.466923 285.812261 494.786346 286.150772 495.105769 286.486767 495.425192 286.820256 495.744615 287.151252 496.064038 287.479767 496.383462 287.805813 496.702885 288.129402 497.022308 288.450544 497.341731 288.769254 497.661154 289.085541 497.980577 289.399418 498.300000 289.710898 498.619423 290.019991 498.938846 290.326710 499.258269 290.631066 499.577692 290.933072 499.897115 291.232739 500.216538 291.530079 500.535962 291.825105 500.855385 292.117827 501.174808 292.408258 501.494231 292.696409 501.813654 292.982293 502.133077 293.265922 502.452500 293.547306 502.771923 293.826459 503.091346 294.103392 503.410769 294.378116 503.730192 294.650644 504.049615 294.920988 504.369038 295.189159 504.688462 295.455170 505.007885 295.719032 505.327308 295.980756 505.646731 296.240356 505.966154 296.497843 506.285577 296.753228 506.605000 297.006524 506.924423 297.257742 507.243846 297.506894 507.563269 297.753993 507.882692 297.999049 508.202115 298.242076 508.521538 298.483084 508.840962 298.722086 509.160385 298.959093 509.479808 299.194118 509.799231 299.427172 510.118654 299.658266 510.438077 299.887414 510.757500 300.114627 511.076923 300.339917 511.396346 300.563295 511.715769 300.784773 512.035192 301.004364 512.354615 301.222079 512.674038 301.437930 512.993462 301.651929 513.312885 301.864088 513.632308 302.074418 513.951731 302.282932 514.271154 302.489641 514.590577 302.694558 514.910000 302.897694 515.229423 303.099061 515.548846 303.298670 515.868269 303.496535 516.187692 303.692666 516.507115 303.887075 516.826538 304.079775 517.145962 304.270777 517.465385 304.460093 517.784808 304.647735 518.104231 304.833715 518.423654 305.018045 518.743077 305.200736 519.062500 305.381800 519.381923 305.561250 519.701346 305.739098 520.020769 305.915354 520.340192 306.090031 520.659615 306.263141 520.979038 306.434695 521.298462 306.604706 521.617885 306.773186 521.937308 306.940145 522.256731 307.105597 522.576154 307.269553 522.895577 307.432025 523.215000 307.593024 523.534423 307.752563 523.853846 307.910654 524.173269 308.067308 524.492692 308.222537 524.812115 308.376353 525.131538 308.528768 525.450962 308.679794 525.770385 308.829443 526.089808 308.977726 526.409231 309.124655 526.728654 309.270243 527.048077 309.414502 527.367500 309.557442 527.686923 309.699076 528.006346 309.839416 528.325769 309.978473 528.645192 310.116260 528.964615 310.252789 529.284038 310.388070 529.603462 310.522117 529.922885 310.654941 530.242308 310.786554 530.561731 310.916967 530.881154 311.046193 531.200577 311.174244 531.520000 311.301130 531.839423 311.426865 532.158846 311.551460 532.478269 311.674928 532.797692 311.797278 533.117115 311.918525 533.436538 312.038679 533.755962 312.157753 534.075385 312.275758 534.394808 312.392706 534.714231 312.508609 535.033654 312.623479 535.353077 312.737327 535.672500 312.850167 535.991923 312.962009 536.311346 313.072865 536.630769 313.182748 536.950192 313.291668 537.269615 313.399639 537.589038 313.506671 537.908462 313.612778 538.227885 313.717970 538.547308 313.822259 538.866731 313.925658 539.186154 314.028177 539.505577 314.129830 539.825000 314.230628 540.144423 314.330583 540.463846 314.429706 540.783269 314.528010 541.102692 314.625507 541.422115 314.722207 541.741538 314.818124 542.060962 314.913269 542.380385 315.007654 542.699808 315.101290 543.019231 315.194190 543.338654 315.286366 543.658077 315.377829 543.977500 315.468591 544.296923 315.558665 544.616346 315.648061 544.935769 315.736793 545.255192 315.824871 545.574615 315.912307 545.894038 315.999114 546.213462 316.085304 546.532885 316.170887 546.852308 316.255877 547.171731 316.340284 547.491154 316.424122 547.810577 316.507401 548.130000 316.590134 548.449423 316.672332 548.768846 316.754007 549.088269 316.835171 549.407692 316.915837 549.727115 316.996015 550.046538 317.075719 550.365962 317.154958 550.685385 317.233747 551.004808 317.312095 551.324231 317.390016 551.643654 317.467521 551.963077 317.544623 552.282500 317.621331 552.601923 317.697660 552.921346 317.773620 553.240769 317.849224 553.560192 317.924483 553.879615 317.999409 554.199038 318.074014 554.518462 318.148311 554.837885 318.222310 555.157308 318.296023 555.476731 318.369463 555.796154 318.442642 556.115577 318.515571 556.435000 318.588262 556.754423 318.660727 557.073846 318.732978 557.393269 318.805027 557.712692 318.876885 558.032115 318.948565 558.351538 319.020078 558.670962 319.091437 558.990385 319.162652 559.309808 319.233737 559.629231 319.304702 559.948654 319.375561 560.268077 319.446323 560.587500 319.517002 560.906923 319.587610 561.226346 319.658158 561.545769 319.728657 561.865192 319.799121 562.184615 319.869560 562.504038 319.939988 562.823462 320.010414 563.142885 320.080852 563.462308 320.151314 563.781731 320.221810 564.101154 320.292354 564.420577 320.362956 564.740000 320.433629 565.059423 320.504385 565.378846 320.575236 565.698269 320.646192 566.017692 320.717267 566.337115 320.788472 566.656538 320.859819 566.975962 320.931320 567.295385 321.002986 567.614808 321.074831 567.934231 321.146864 568.253654 321.219099 568.573077 321.291547 568.892500 321.364220 569.211923 321.437130 569.531346 321.510289 569.850769 321.583709 570.170192 321.657401 570.489615 321.731377 570.809038 321.805650 571.128462 321.880231 571.447885 321.955132 571.767308 322.030364 572.086731 322.105939 572.406154 322.181855 572.725577 322.258113 573.045000 322.334710 573.364423 322.411646 573.683846 322.488918 574.003269 322.566526 574.322692 322.644468 574.642115 322.722743 574.961538 322.801349 575.280962 322.880286 575.600385 322.959550 575.919808 323.039142 576.239231 323.119060 576.558654 323.199303 576.878077 323.279868 577.197500 323.360756 577.516923 323.441963 577.836346 323.523490 578.155769 323.605334 578.475192 323.687495 578.794615 323.769970 579.114038 323.852759 579.433462 323.935861 579.752885 324.019272 580.072308 324.102994 580.391731 324.187023 580.711154 324.271359 581.030577 324.356000 581.350000 324.440945 581.669423 324.526192 581.988846 324.611741 582.308269 324.697589 582.627692 324.783736 582.947115 324.870179 583.266538 324.956919 583.585962 325.043952 583.905385 325.131279 584.224808 325.218897 584.544231 325.306805 584.863654 325.395002 585.183077 325.483486 585.502500 325.572256 585.821923 325.661311 586.141346 325.750649 586.460769 325.840269 586.780192 325.930170 587.099615 326.020349 587.419038 326.110807 587.738462 326.201540 588.057885 326.292549 588.377308 326.383831 588.696731 326.475386 589.016154 326.567211 589.335577 326.659306 589.655000 326.751670 589.974423 326.844299 590.293846 326.937195 590.613269 327.030354 590.932692 327.123776 591.252115 327.217459 591.571538 327.311402 591.890962 327.405603 592.210385 327.500062 592.529808 327.594776 592.849231 327.689745 593.168654 327.784967 593.488077 327.880440 593.807500 327.976164 594.126923 328.072136 594.446346 328.168356 594.765769 328.264822 595.085192 328.361533 595.404615 328.458488 595.724038 328.555684 596.043462 328.653121 596.362885 328.750797 596.682308 328.848711 597.001731 328.946861 597.321154 329.045247 597.640577 329.143866 597.960000 329.242718 598.279423 329.341801 598.598846 329.441113 598.918269 329.540654 599.237692 329.640421 599.557115 329.740414 599.876538 329.840631 600.195962 329.941071 600.515385 330.041733 600.834808 330.142614 601.154231 330.243714 601.473654 330.345031 601.793077 330.446564 602.112500 330.548311 602.431923 330.650272 602.751346 330.752444 603.070769 330.854827 603.390192 330.957419 603.709615 331.060218 604.029038 331.163224 604.348462 331.266435 604.667885 331.369849 604.987308 331.473465 605.306731 331.577282 605.626154 331.681298 605.945577 331.785512 606.265000 331.889923 606.584423 331.994529 606.903846 332.099329 607.223269 332.204322 607.542692 332.309505 607.862115 332.414879 608.181538 332.520441 608.500962 332.626189 608.820385 332.732124 609.139808 332.838242 609.459231 332.944544 609.778654 333.051027 610.098077 333.157690 610.417500 333.264532 610.736923 333.371551 611.056346 333.478747 611.375769 333.586116 611.695192 333.693660 612.014615 333.801375 612.334038 333.909260 612.653462 334.017315 612.972885 334.125537 613.292308 334.233926 613.611731 334.342480 613.931154 334.451197 614.250577 334.560077 614.570000 334.669117 614.889423 334.778317 615.208846 334.887676 615.528269 334.997191 615.847692 335.106861 616.167115 335.216685 616.486538 335.326662 616.805962 335.436790 617.125385 335.547068 617.444808 335.657495 617.764231 335.768068 618.083654 335.878788 618.403077 335.989652 618.722500 336.100658 619.041923 336.211807 619.361346 336.323095 619.680769 336.434523 620.000192 336.546088 620.319615 336.657789 620.639038 336.769625 620.958462 336.881594 621.277885 336.993696 621.597308 337.105928 621.916731 337.218289 622.236154 337.330778 622.555577 337.443393 622.875000 337.556134 623.194423 337.668999 623.513846 337.781985 623.833269 337.895093 624.152692 338.008321 624.472115 338.121666 624.791538 338.235129 625.110962 338.348707 625.430385 338.462399 625.749808 338.576204 626.069231 338.690120 626.388654 338.804147 626.708077 338.918281 627.027500 339.032524 627.346923 339.146872 627.666346 339.261324 627.985769 339.375880 628.305192 339.490537 628.624615 339.605295 628.944038 339.720152 629.263462 339.835106 629.582885 339.950157 629.902308 340.065303 630.221731 340.180542 630.541154 340.295873 630.860577 340.411295 631.180000 340.526806 631.499423 340.642405 631.818846 340.758091 632.138269 340.873863 632.457692 340.989718 632.777115 341.105655 633.096538 341.221674 633.415962 341.337772 633.735385 341.453949 634.054808 341.570203 634.374231 341.686532 634.693654 341.802936 635.013077 341.919413 635.332500 342.035961 635.651923 342.152579 635.971346 342.269266 636.290769 342.386020 636.610192 342.502840 636.929615 342.619725 637.249038 342.736673 637.568462 342.853684 637.887885 342.970754 638.207308 343.087884 638.526731 343.205071 638.846154 343.322315 639.165577 343.439614 639.485000 343.556966 639.804423 343.674371 640.123846 343.791827 640.443269 343.909332 640.762692 344.026885 641.082115 344.144485 641.401538 344.262130 641.720962 344.379819 642.040385 344.497551 642.359808 344.615324 642.679231 344.733138 642.998654 344.850989 643.318077 344.968878 643.637500 345.086802 643.956923 345.204761 644.276346 345.322753 644.595769 345.440776 644.915192 345.558830 645.234615 345.676913 645.554038 345.795023 645.873462 345.913159 646.192885 346.031320 646.512308 346.149504 646.831731 346.267710 647.151154 346.385937 647.470577 346.504184 647.790000 346.622448 648.109423 346.740728 648.428846 346.859024 648.748269 346.977333 649.067692 347.095655 649.387115 347.213988 649.706538 347.332330 650.025962 347.450681 650.345385 347.569039 650.664808 347.687402 650.984231 347.805769 651.303654 347.924139 651.623077 348.042510 651.623077 504.115385" /></g></g><g class="titles"><text class="title plot_title" x="400.0" y="26">Like update</text></g><g class="plot overlay" transform="translate(115, 46)"><g class="series serie-0 color-0"><g class="dots"><circle class="dot reactive tooltip-trigger" cx="12.776923076923076" cy="178.96356275303646" r="2.5" /><desc class="value">25000</desc><desc class="x ">12.776923076923076</desc><desc class="y ">178.96356275303646</desc><desc class="x_label">25-Oct</desc></g><g class="dots"><circle class="dot reactive tooltip-trigger" cx="92.6326923076923" cy="35.89676113360326" r="2.5" /><desc class="value">36000</desc><desc class="x ">92.6326923076923</desc><desc class="y ">35.89676113360326</desc><desc class="x_label">3-Nov</desc></g><g class="dots"><circle class="dot reactive tooltip-trigger" cx="172.48846153846154" cy="126.9392712550607" r="2.5" /><desc class="value">29000</desc><desc class="x ">172.48846153846154</desc><desc class="y ">126.9392712550607</desc><desc class="x_label">6-Nov</desc></g><g class="dots"><circle class="dot reactive tooltip-trigger" cx="252.34423076923076" cy="139.94534412955466" r="2.5" /><desc class="value">28000</desc><desc class="x ">252.34423076923076</desc><desc class="y ">139.94534412955466</desc><desc class="x_label">9-Nov</desc></g><g class="dots"><circle class="dot reactive tooltip-trigger" cx="332.2" cy="230.98785425101215" r="2.5" /><desc class="value">21000</desc><desc class="x ">332.2</desc><desc class="y ">230.98785425101215</desc><desc class="x_label">16-Nov</desc></g><g class="dots"><circle class="dot reactive tooltip-trigger" cx="412.0557692307692" cy="191.96963562753035" r="2.5" /><desc class="value">24000</desc><desc class="x left">412.0557692307692</desc><desc class="y left">191.96963562753035</desc><desc class="x_label">21-Nov</desc></g><g class="dots"><circle class="dot reactive tooltip-trigger" cx="491.91153846153844" cy="283.01214574898785" r="2.5" /><desc class="value">17000</desc><desc class="x left top">491.91153846153844</desc><desc class="y left top">283.01214574898785</desc><desc class="x_label">22-Nov</desc></g><g class="dots"><circle class="dot reactive tooltip-trigger" cx="571.7673076923077" cy="322.03036437246965" r="2.5" /><desc class="value">14000</desc><desc class="x left top">571.7673076923077</desc><desc class="y left top">322.03036437246965</desc><desc class="x_label">24-Nov</desc></g><g class="dots"><circle class="dot reactive tooltip-trigger" cx="651.6230769230768" cy="348.0425101214575" r="2.5" /><desc class="value">12000</desc><desc class="x left top">651.6230769230768</desc><desc class="y left top">348.0425101214575</desc><desc class="x_label">25-Nov</desc></g></g></g><g class="plot text-overlay" transform="translate(115, 46)"><g class="series serie-0 color-0" /></g><g class="plot tooltip-overlay" transform="translate(115, 46)"><g class="tooltip" style="opacity: 0" transform="translate(0 0)"><rect class="tooltip-box" height="0" rx="0" ry="0" width="0" /><g class="text" /></g></g><g class="legends" transform="translate(10, 56)"><g class="legend reactive activate-serie" id="activate-serie-0"><rect class="color-0 reactive" height="12" width="12" x="0.0" y="1.0" /><text x="17.0" y="11.2">LIKE</text></g></g><g class="legends" transform="translate(790, 56)" /></g></svg>